<svg xmlns="http://www.w3.org/2000/svg" viewBox="0 0 1825.94 1924.2" role="presentation">
	<defs>
		<style>
			.cls-1{fill:#ff8416}.cls-2{fill:#ff7002}.cls-3{fill:#ff8d1e}.cls-4{fill:#eb5c00}.cls-5{fill:#e81f30}.cls-6{fill:#d40b1c}.cls-7{fill:#ff3647}.cls-8{fill:#ff4151}.cls-9{fill:#15b068}.cls-10{fill:#019c54}.cls-11{fill:#1fba72}.cls-12{fill:#008840}.cls-13{fill:#168bdd}.cls-14{fill:#0277c9}.cls-15{fill:#1b90e1}.cls-16{fill:#0063b5}.cls-17{fill:#ffeb53}.cls-18{fill:#ffd73f}.cls-19{fill:#fff55d}.cls-20{fill:#ebc32b}
		</style>
	</defs>
	<path class="cls-1" d="m1390.09 448.43 100-62.5 100 62.5-100 62.5-100-62.5z" />
	<path class="cls-2" d="M1576.7 510.4c-11.71 0-21.2-5.49-21.2-12.26v12.26c0 6.77 9.49 12.26 21.2 12.26s21.21-5.49 21.21-12.26v-12.26c0 6.77-9.49 12.26-21.21 12.26ZM1627.33 481.18c-11.72 0-21.21-5.49-21.21-12.26v12.26c0 6.77 9.49 12.26 21.21 12.26s21.2-5.49 21.2-12.26v-12.26c0 6.77-9.53 12.26-21.2 12.26ZM1526.86 481.62c-11.71 0-21.21-5.48-21.21-12.26v12.26c0 6.77 9.5 12.26 21.21 12.26s21.21-5.49 21.21-12.26v-12.26c0 6.78-9.5 12.26-21.21 12.26ZM1577.48 452.4c-11.71 0-21.21-5.49-21.21-12.26v12.26c0 6.77 9.5 12.26 21.21 12.26s21.21-5.49 21.21-12.26v-12.26c0 6.77-9.5 12.26-21.21 12.26Z" transform="translate(-87.03 -37.9)" />
	<ellipse class="cls-3" cx="1489.67" cy="460.24" rx="21.21" ry="12.26" />
	<ellipse class="cls-3" cx="1540.29" cy="431.02" rx="21.21" ry="12.26" />
	<ellipse class="cls-3" cx="1490.45" cy="402.24" rx="21.21" ry="12.26" />
	<ellipse class="cls-3" cx="1439.83" cy="431.46" rx="21.21" ry="12.26" />
	<path class="cls-2" d="m1490.09 510.93-100-62.5v31.25l100 62.5v-31.25z" />
	<path class="cls-4" d="m1490.09 510.93 100-62.5v31.25l-100 62.5v-31.25z" />
	<path class="cls-5" d="m1490.09 896.87-100-62.5v31.25l100 62.5v-31.25z" />
	<path class="cls-6" d="m1490.09 896.87 100-62.5v31.25l-100 62.5v-31.25z" />
	<path class="cls-7" d="m1390.09 834.37 100-62.5 100 62.5-100 62.5-100-62.5z" />
	<path class="cls-5" d="M1576.7 896.34c-11.71 0-21.2-5.49-21.2-12.26v12.26c0 6.77 9.49 12.25 21.2 12.25s21.21-5.48 21.21-12.25v-12.26c0 6.77-9.49 12.26-21.21 12.26ZM1627.33 867.11c-11.72 0-21.21-5.49-21.21-12.26v12.26c0 6.77 9.49 12.26 21.21 12.26s21.2-5.49 21.2-12.26v-12.26c0 6.77-9.53 12.26-21.2 12.26ZM1526.86 867.56c-11.71 0-21.21-5.49-21.21-12.26v12.26c0 6.77 9.5 12.26 21.21 12.26s21.21-5.49 21.21-12.26V855.3c0 6.77-9.5 12.26-21.21 12.26ZM1577.48 838.33c-11.71 0-21.21-5.49-21.21-12.26v12.26c0 6.77 9.5 12.26 21.21 12.26s21.21-5.49 21.21-12.26v-12.26c0 6.77-9.5 12.26-21.21 12.26Z" transform="translate(-87.03 -37.9)" />
	<ellipse class="cls-8" cx="1489.67" cy="846.18" rx="21.21" ry="12.26" />
	<ellipse class="cls-8" cx="1540.29" cy="816.95" rx="21.21" ry="12.26" />
	<ellipse class="cls-8" cx="1490.45" cy="788.17" rx="21.21" ry="12.26" />
	<ellipse class="cls-8" cx="1439.83" cy="817.4" rx="21.21" ry="12.26" />
	<path class="cls-9" d="m1390.09 1606.2 100-62.5 100 62.5-100 62.5-100-62.5z" />
	<path class="cls-10" d="M1576.7 1668.17c-11.71 0-21.2-5.49-21.2-12.26v12.26c0 6.77 9.49 12.26 21.2 12.26s21.21-5.49 21.21-12.26v-12.26c0 6.77-9.49 12.26-21.21 12.26ZM1627.33 1638.94c-11.72 0-21.21-5.49-21.21-12.26v12.26c0 6.77 9.49 12.26 21.21 12.26s21.2-5.49 21.2-12.26v-12.26c0 6.77-9.53 12.26-21.2 12.26ZM1526.86 1639.39c-11.71 0-21.21-5.49-21.21-12.26v12.26c0 6.77 9.5 12.26 21.21 12.26s21.21-5.49 21.21-12.26v-12.26c0 6.77-9.5 12.26-21.21 12.26ZM1577.48 1610.17c-11.71 0-21.21-5.49-21.21-12.26v12.26c0 6.77 9.5 12.25 21.21 12.25s21.21-5.48 21.21-12.25v-12.26c0 6.77-9.5 12.26-21.21 12.26Z" transform="translate(-87.03 -37.9)" />
	<ellipse class="cls-11" cx="1489.67" cy="1618.01" rx="21.21" ry="12.26" />
	<ellipse class="cls-11" cx="1540.29" cy="1588.78" rx="21.21" ry="12.26" />
	<ellipse class="cls-11" cx="1490.45" cy="1560.01" rx="21.21" ry="12.26" />
	<ellipse class="cls-11" cx="1439.83" cy="1589.23" rx="21.21" ry="12.26" />
	<path class="cls-10" d="m1490.09 1668.7-100-62.5v31.32l100 62.5v-31.32z" />
	<path class="cls-12" d="m1490.09 1668.7 100-62.5v31.32l-100 62.5v-31.32z" />
	<path class="cls-13" d="m1390.09 1220.3 100-62.5 100 62.5-100 62.5-100-62.5z" />
	<path class="cls-14" d="M1576.7 1282.27c-11.71 0-21.2-5.49-21.2-12.26v12.26c0 6.77 9.49 12.26 21.2 12.26s21.21-5.49 21.21-12.26V1270c0 6.78-9.49 12.27-21.21 12.27ZM1627.33 1253c-11.72 0-21.21-5.49-21.21-12.26V1253c0 6.77 9.49 12.26 21.21 12.26s21.2-5.49 21.2-12.26v-12.26c0 6.81-9.53 12.26-21.2 12.26ZM1526.86 1253.49c-11.71 0-21.21-5.49-21.21-12.26v12.26c0 6.77 9.5 12.26 21.21 12.26s21.21-5.49 21.21-12.26v-12.26c0 6.77-9.5 12.26-21.21 12.26ZM1577.48 1224.26c-11.71 0-21.21-5.48-21.21-12.25v12.25c0 6.78 9.5 12.26 21.21 12.26s21.21-5.48 21.21-12.26V1212c0 6.78-9.5 12.26-21.21 12.26Z" transform="translate(-87.03 -37.9)" />
	<ellipse class="cls-15" cx="1489.67" cy="1232.11" rx="21.21" ry="12.26" />
	<ellipse class="cls-15" cx="1540.29" cy="1202.88" rx="21.21" ry="12.26" />
	<ellipse class="cls-15" cx="1490.45" cy="1174.11" rx="21.21" ry="12.26" />
	<ellipse class="cls-15" cx="1439.83" cy="1203.33" rx="21.21" ry="12.26" />
	<path class="cls-14" d="m1490.09 1282.8-100-62.5v31.25l100 62.5v-31.25z" />
	<path class="cls-16" d="m1490.09 1282.8 100-62.5v31.25l-100 62.5v-31.25z" />
	<path class="cls-17" d="m1390.09 62.5 100-62.5 100 62.5-100 62.5-100-62.5z" />
	<path class="cls-18" d="M1576.7 124.47c-11.71 0-21.2-5.49-21.2-12.26v12.26c0 6.77 9.49 12.26 21.2 12.26s21.21-5.49 21.21-12.26v-12.26c0 6.79-9.49 12.26-21.21 12.26ZM1627.33 95.24c-11.72 0-21.21-5.49-21.21-12.26v12.26c0 6.77 9.49 12.26 21.21 12.26s21.2-5.49 21.2-12.26V83c0 6.75-9.53 12.24-21.2 12.24ZM1526.86 95.69c-11.71 0-21.21-5.49-21.21-12.26v12.26c0 6.77 9.5 12.26 21.21 12.26s21.21-5.49 21.21-12.26V83.43c0 6.77-9.5 12.26-21.21 12.26ZM1577.48 66.46c-11.71 0-21.21-5.48-21.21-12.26v12.26c0 6.77 9.5 12.26 21.21 12.26s21.21-5.49 21.21-12.26V54.2c0 6.8-9.5 12.26-21.21 12.26Z" transform="translate(-87.03 -37.9)" />
	<ellipse class="cls-19" cx="1489.67" cy="74.31" rx="21.21" ry="12.26" />
	<ellipse class="cls-19" cx="1540.29" cy="45.08" rx="21.21" ry="12.26" />
	<ellipse class="cls-19" cx="1490.45" cy="16.31" rx="21.21" ry="12.26" />
	<ellipse class="cls-19" cx="1439.83" cy="45.53" rx="21.21" ry="12.26" />
	<path class="cls-18" d="m1490.09 125-100-62.5v31.25l100 62.5V125z" />
	<path class="cls-20" d="m1490.09 125 100-62.5v31.25l-100 62.5V125z" />
	<path class="cls-5" d="m1725.94 719.52-100-62.5v31.25l100 62.5v-31.25z" />
	<path class="cls-6" d="m1725.94 719.52 100-62.5v31.25l-100 62.5v-31.25z" />
	<path class="cls-7" d="m1625.94 657.02 100-62.5 100 62.5-100 62.5-100-62.5z" />
	<path class="cls-5" d="M1812.55 719c-11.71 0-21.2-5.49-21.2-12.26V719c0 6.77 9.49 12.26 21.2 12.26s21.21-5.49 21.21-12.26v-12.27c0 6.77-9.5 12.27-21.21 12.27ZM1863.17 689.77c-11.71 0-21.2-5.49-21.2-12.26v12.26c0 6.77 9.49 12.26 21.2 12.26s21.21-5.49 21.21-12.26v-12.26c0 6.77-9.49 12.26-21.21 12.26ZM1762.71 690.22c-11.71 0-21.21-5.49-21.21-12.26v12.26c0 6.77 9.5 12.25 21.21 12.25s21.2-5.48 21.2-12.25V678c0 6.73-9.49 12.22-21.2 12.22ZM1813.33 661c-11.71 0-21.21-5.49-21.21-12.26V661c0 6.77 9.5 12.26 21.21 12.26s21.2-5.49 21.2-12.26v-12.27c0 6.77-9.53 12.27-21.2 12.27Z" transform="translate(-87.03 -37.9)" />
	<ellipse class="cls-8" cx="1725.52" cy="668.83" rx="21.21" ry="12.26" />
	<ellipse class="cls-8" cx="1776.14" cy="639.61" rx="21.21" ry="12.26" />
	<ellipse class="cls-8" cx="1726.3" cy="610.83" rx="21.21" ry="12.26" />
	<ellipse class="cls-8" cx="1675.68" cy="640.06" rx="21.21" ry="12.26" />
	<path class="cls-1" d="m1625.94 625.77 100-62.5 100 62.5-100 62.5-100-62.5z" />
	<path class="cls-2" d="M1812.55 687.74c-11.71 0-21.2-5.49-21.2-12.26v12.26c0 6.77 9.49 12.26 21.2 12.26s21.21-5.49 21.21-12.26v-12.26c0 6.77-9.5 12.26-21.21 12.26ZM1863.17 658.52c-11.71 0-21.2-5.49-21.2-12.26v12.26c0 6.77 9.49 12.26 21.2 12.26s21.21-5.49 21.21-12.26v-12.26c0 6.74-9.49 12.26-21.21 12.26ZM1762.71 659c-11.71 0-21.21-5.49-21.21-12.26V659c0 6.77 9.5 12.25 21.21 12.25s21.2-5.48 21.2-12.25v-12.29c0 6.77-9.49 12.29-21.2 12.29ZM1813.33 629.74c-11.71 0-21.21-5.49-21.21-12.26v12.26c0 6.77 9.5 12.26 21.21 12.26s21.2-5.49 21.2-12.26v-12.26c0 6.77-9.53 12.26-21.2 12.26Z" transform="translate(-87.03 -37.9)" />
	<ellipse class="cls-3" cx="1725.52" cy="637.58" rx="21.21" ry="12.26" />
	<ellipse class="cls-3" cx="1776.14" cy="608.36" rx="21.21" ry="12.26" />
	<ellipse class="cls-3" cx="1726.3" cy="579.58" rx="21.21" ry="12.26" />
	<ellipse class="cls-3" cx="1675.68" cy="608.81" rx="21.21" ry="12.26" />
	<path class="cls-2" d="m1725.94 688.27-100-62.5v31.25l100 62.5v-31.25z" />
	<path class="cls-4" d="m1725.94 688.27 100-62.5v31.25l-100 62.5v-31.25z" />
	<path class="cls-13" d="m1625.94 1042.96 100-62.5 100 62.5-100 62.5-100-62.5z" />
	<path class="cls-14" d="M1812.55 1104.93c-11.71 0-21.2-5.49-21.2-12.26v12.26c0 6.77 9.49 12.26 21.2 12.26s21.21-5.49 21.21-12.26v-12.26c0 6.77-9.5 12.26-21.21 12.26ZM1863.17 1075.7c-11.71 0-21.2-5.49-21.2-12.26v12.26c0 6.77 9.49 12.26 21.2 12.26s21.21-5.49 21.21-12.26v-12.26c0 6.77-9.49 12.26-21.21 12.26ZM1762.71 1076.15c-11.71 0-21.21-5.49-21.21-12.26v12.26c0 6.77 9.5 12.26 21.21 12.26s21.2-5.49 21.2-12.26v-12.26c0 6.77-9.49 12.26-21.2 12.26ZM1813.33 1046.92c-11.71 0-21.21-5.49-21.21-12.26v12.26c0 6.77 9.5 12.26 21.21 12.26s21.2-5.49 21.2-12.26v-12.26c0 6.77-9.53 12.26-21.2 12.26Z" transform="translate(-87.03 -37.9)" />
	<ellipse class="cls-15" cx="1725.52" cy="1054.77" rx="21.21" ry="12.26" />
	<ellipse class="cls-15" cx="1776.14" cy="1025.54" rx="21.21" ry="12.26" />
	<ellipse class="cls-15" cx="1726.3" cy="996.76" rx="21.21" ry="12.26" />
	<ellipse class="cls-15" cx="1675.68" cy="1025.99" rx="21.21" ry="12.26" />
	<path class="cls-14" d="m1725.94 1105.46-100-62.5v31.25l100 62.5v-31.25z" />
	<path class="cls-16" d="m1725.94 1105.46 100-62.5v31.25l-100 62.5v-31.25z" />
	<path class="cls-5" d="m1725.94 1074.21-100-62.5v31.25l100 62.5v-31.25z" />
	<path class="cls-6" d="m1725.94 1074.21 100-62.5v31.25l-100 62.5v-31.25z" />
	<path class="cls-7" d="m1625.94 1011.71 100-62.5 100 62.5-100 62.5-100-62.5z" />
	<path class="cls-5" d="M1812.55 1073.68c-11.71 0-21.2-5.49-21.2-12.26v12.26c0 6.77 9.49 12.26 21.2 12.26s21.21-5.49 21.21-12.26v-12.26c0 6.77-9.5 12.26-21.21 12.26ZM1863.17 1044.45c-11.71 0-21.2-5.49-21.2-12.26v12.26c0 6.77 9.49 12.26 21.2 12.26s21.21-5.49 21.21-12.26v-12.26c0 6.81-9.49 12.26-21.21 12.26ZM1762.71 1044.9c-11.71 0-21.21-5.49-21.21-12.26v12.26c0 6.77 9.5 12.26 21.21 12.26s21.2-5.49 21.2-12.26v-12.26c0 6.77-9.49 12.26-21.2 12.26ZM1813.33 1015.67c-11.71 0-21.21-5.49-21.21-12.26v12.26c0 6.77 9.5 12.26 21.21 12.26s21.2-5.49 21.2-12.26v-12.26c0 6.77-9.53 12.26-21.2 12.26Z" transform="translate(-87.03 -37.9)" />
	<ellipse class="cls-8" cx="1725.52" cy="1023.52" rx="21.21" ry="12.26" />
	<ellipse class="cls-8" cx="1776.14" cy="994.29" rx="21.21" ry="12.26" />
	<ellipse class="cls-8" cx="1726.3" cy="965.51" rx="21.21" ry="12.26" />
	<ellipse class="cls-8" cx="1675.68" cy="994.74" rx="21.21" ry="12.26" />
	<path class="cls-17" d="m1625.94 1814.86 100-62.5 100 62.5-100 62.5-100-62.5z" />
	<path class="cls-18" d="M1812.55 1876.83c-11.71 0-21.2-5.49-21.2-12.26v12.26c0 6.77 9.49 12.26 21.2 12.26s21.21-5.49 21.21-12.26v-12.26c0 6.77-9.5 12.26-21.21 12.26ZM1863.17 1847.6c-11.71 0-21.2-5.49-21.2-12.26v12.26c0 6.77 9.49 12.26 21.2 12.26s21.21-5.49 21.21-12.26v-12.26c0 6.77-9.49 12.26-21.21 12.26ZM1762.71 1848.05c-11.71 0-21.21-5.49-21.21-12.26v12.26c0 6.77 9.5 12.26 21.21 12.26s21.2-5.49 21.2-12.26v-12.26c0 6.77-9.49 12.26-21.2 12.26ZM1813.33 1818.82c-11.71 0-21.21-5.49-21.21-12.26v12.26c0 6.77 9.5 12.26 21.21 12.26s21.2-5.49 21.2-12.26v-12.26c0 6.77-9.53 12.26-21.2 12.26Z" transform="translate(-87.03 -37.9)" />
	<ellipse class="cls-19" cx="1725.52" cy="1826.67" rx="21.21" ry="12.26" />
	<ellipse class="cls-19" cx="1776.14" cy="1797.44" rx="21.21" ry="12.26" />
	<ellipse class="cls-19" cx="1726.3" cy="1768.66" rx="21.21" ry="12.26" />
	<ellipse class="cls-19" cx="1675.68" cy="1797.89" rx="21.21" ry="12.26" />
	<path class="cls-18" d="m1725.94 1877.36-100-62.5v31.25l100 62.5v-31.25z" />
	<path class="cls-20" d="m1725.94 1877.36 100-62.5v31.25l-100 62.5v-31.25z" />
	<path class="cls-9" d="m1625.94 1783.54 100-62.5 100 62.5-100 62.5-100-62.5z" />
	<path class="cls-10" d="M1812.55 1845.51c-11.71 0-21.2-5.49-21.2-12.26v12.26c0 6.77 9.49 12.26 21.2 12.26s21.21-5.49 21.21-12.26v-12.26c0 6.75-9.5 12.26-21.21 12.26ZM1863.17 1816.28c-11.71 0-21.2-5.48-21.2-12.25v12.25c0 6.78 9.49 12.26 21.2 12.26s21.21-5.48 21.21-12.26V1804c0 6.8-9.49 12.28-21.21 12.28ZM1762.71 1816.73c-11.71 0-21.21-5.49-21.21-12.26v12.26c0 6.77 9.5 12.26 21.21 12.26s21.2-5.49 21.2-12.26v-12.26c0 6.77-9.49 12.26-21.2 12.26ZM1813.33 1787.51c-11.71 0-21.21-5.49-21.21-12.26v12.26c0 6.77 9.5 12.26 21.21 12.26s21.2-5.49 21.2-12.26v-12.26c0 6.75-9.53 12.26-21.2 12.26Z" transform="translate(-87.03 -37.9)" />
	<ellipse class="cls-11" cx="1725.52" cy="1795.35" rx="21.21" ry="12.26" />
	<ellipse class="cls-11" cx="1776.14" cy="1766.13" rx="21.21" ry="12.26" />
	<ellipse class="cls-11" cx="1726.3" cy="1737.35" rx="21.21" ry="12.26" />
	<ellipse class="cls-11" cx="1675.68" cy="1766.57" rx="21.21" ry="12.26" />
	<path class="cls-10" d="m1725.94 1846.04-100-62.5v31.32l100 62.5v-31.32z" />
	<path class="cls-12" d="m1725.94 1846.04 100-62.5v31.32l-100 62.5v-31.32z" />
	<path class="cls-9" d="m1625.94 1428.86 100-62.5 100 62.5-100 62.5-100-62.5z" />
	<path class="cls-10" d="M1812.55 1490.83c-11.71 0-21.2-5.49-21.2-12.26v12.26c0 6.77 9.49 12.26 21.2 12.26s21.21-5.49 21.21-12.26v-12.26c0 6.77-9.5 12.26-21.21 12.26ZM1863.17 1461.6c-11.71 0-21.2-5.49-21.2-12.26v12.26c0 6.77 9.49 12.26 21.2 12.26s21.21-5.49 21.21-12.26v-12.26c0 6.77-9.49 12.26-21.21 12.26ZM1762.71 1462.05c-11.71 0-21.21-5.49-21.21-12.26v12.26c0 6.77 9.5 12.26 21.21 12.26s21.2-5.49 21.2-12.26v-12.26c0 6.77-9.49 12.26-21.2 12.26ZM1813.33 1432.82c-11.71 0-21.21-5.49-21.21-12.26v12.26c0 6.77 9.5 12.26 21.21 12.26s21.2-5.49 21.2-12.26v-12.26c0 6.77-9.53 12.26-21.2 12.26Z" transform="translate(-87.03 -37.9)" />
	<ellipse class="cls-11" cx="1725.52" cy="1440.67" rx="21.21" ry="12.26" />
	<ellipse class="cls-11" cx="1776.14" cy="1411.44" rx="21.21" ry="12.26" />
	<ellipse class="cls-11" cx="1726.3" cy="1382.66" rx="21.21" ry="12.26" />
	<ellipse class="cls-11" cx="1675.68" cy="1411.89" rx="21.21" ry="12.26" />
	<path class="cls-10" d="m1725.94 1491.36-100-62.5v31.31l100 62.5v-31.31z" />
	<path class="cls-12" d="m1725.94 1491.36 100-62.5v31.31l-100 62.5v-31.31z" />
	<path class="cls-13" d="m1625.94 1397.61 100-62.5 100 62.5-100 62.5-100-62.5z" />
	<path class="cls-14" d="M1812.55 1459.58c-11.71 0-21.2-5.49-21.2-12.26v12.26c0 6.77 9.49 12.26 21.2 12.26s21.21-5.49 21.21-12.26v-12.26c0 6.77-9.5 12.26-21.21 12.26ZM1863.17 1430.35c-11.71 0-21.2-5.49-21.2-12.26v12.26c0 6.77 9.49 12.26 21.2 12.26s21.21-5.49 21.21-12.26v-12.26c0 6.77-9.49 12.26-21.21 12.26ZM1762.71 1430.8c-11.71 0-21.21-5.49-21.21-12.26v12.26c0 6.77 9.5 12.26 21.21 12.26s21.2-5.49 21.2-12.26v-12.26c0 6.77-9.49 12.26-21.2 12.26ZM1813.33 1401.57c-11.71 0-21.21-5.49-21.21-12.26v12.26c0 6.77 9.5 12.26 21.21 12.26s21.2-5.49 21.2-12.26v-12.26c0 6.77-9.53 12.26-21.2 12.26Z" transform="translate(-87.03 -37.9)" />
	<ellipse class="cls-15" cx="1725.52" cy="1409.42" rx="21.21" ry="12.26" />
	<ellipse class="cls-15" cx="1776.14" cy="1380.19" rx="21.21" ry="12.26" />
	<ellipse class="cls-15" cx="1726.3" cy="1351.41" rx="21.21" ry="12.26" />
	<ellipse class="cls-15" cx="1675.68" cy="1380.64" rx="21.21" ry="12.26" />
	<path class="cls-14" d="m1725.94 1460.11-100-62.5v31.25l100 62.5v-31.25z" />
	<path class="cls-16" d="m1725.94 1460.11 100-62.5v31.25l-100 62.5v-31.25z" />
	<path class="cls-1" d="m1625.94 271.09 100-62.5 100 62.5-100 62.5-100-62.5z" />
	<path class="cls-2" d="M1812.55 333.06c-11.71 0-21.2-5.49-21.2-12.26v12.26c0 6.77 9.49 12.26 21.2 12.26s21.21-5.49 21.21-12.26V320.8c0 6.77-9.5 12.26-21.21 12.26ZM1863.17 303.83c-11.71 0-21.2-5.48-21.2-12.26v12.26c0 6.77 9.49 12.26 21.2 12.26s21.21-5.49 21.21-12.26v-12.26c0 6.78-9.49 12.26-21.21 12.26ZM1762.71 304.28c-11.71 0-21.21-5.49-21.21-12.26v12.26c0 6.77 9.5 12.26 21.21 12.26s21.2-5.49 21.2-12.26V292c0 6.79-9.49 12.28-21.2 12.28ZM1813.33 275.06c-11.71 0-21.21-5.49-21.21-12.26v12.26c0 6.77 9.5 12.26 21.21 12.26s21.2-5.49 21.2-12.26V262.8c0 6.77-9.53 12.26-21.2 12.26Z" transform="translate(-87.03 -37.9)" />
	<ellipse class="cls-3" cx="1725.52" cy="282.9" rx="21.21" ry="12.26" />
	<ellipse class="cls-3" cx="1776.14" cy="253.67" rx="21.21" ry="12.26" />
	<ellipse class="cls-3" cx="1726.3" cy="224.9" rx="21.21" ry="12.26" />
	<ellipse class="cls-3" cx="1675.68" cy="254.12" rx="21.21" ry="12.26" />
	<path class="cls-2" d="m1725.94 333.59-100-62.5v31.25l100 62.5v-31.25z" />
	<path class="cls-4" d="m1725.94 333.59 100-62.5v31.25l-100 62.5v-31.25z" />
	<path class="cls-17" d="m1625.94 239.84 100-62.5 100 62.5-100 62.5-100-62.5z" />
	<path class="cls-18" d="M1812.55 301.81c-11.71 0-21.2-5.49-21.2-12.26v12.26c0 6.77 9.49 12.26 21.2 12.26s21.21-5.49 21.21-12.26v-12.26c0 6.77-9.5 12.26-21.21 12.26ZM1863.17 272.58c-11.71 0-21.2-5.48-21.2-12.26v12.26c0 6.77 9.49 12.26 21.2 12.26s21.21-5.49 21.21-12.26v-12.26c0 6.78-9.49 12.26-21.21 12.26ZM1762.71 273c-11.71 0-21.21-5.49-21.21-12.26V273c0 6.77 9.5 12.26 21.21 12.26s21.2-5.49 21.2-12.26v-12.23c0 6.77-9.49 12.23-21.2 12.23ZM1813.33 243.81c-11.71 0-21.21-5.49-21.21-12.26v12.26c0 6.77 9.5 12.26 21.21 12.26s21.2-5.49 21.2-12.26v-12.26c0 6.77-9.53 12.26-21.2 12.26Z" transform="translate(-87.03 -37.9)" />
	<ellipse class="cls-19" cx="1725.52" cy="251.65" rx="21.21" ry="12.26" />
	<ellipse class="cls-19" cx="1776.14" cy="222.42" rx="21.21" ry="12.26" />
	<ellipse class="cls-19" cx="1726.3" cy="193.65" rx="21.21" ry="12.26" />
	<ellipse class="cls-19" cx="1675.68" cy="222.87" rx="21.21" ry="12.26" />
	<path class="cls-18" d="m1725.94 302.34-100-62.5v31.25l100 62.5v-31.25z" />
	<path class="cls-20" d="m1725.94 302.34 100-62.5v31.25l-100 62.5v-31.25zM1043.39 93.75l50-31.25V125l-50 31.25v-62.5z" />
	<path class="cls-18" d="m1043.39 93.75-100-62.5v62.5l100 62.5v-62.5z" />
	<path class="cls-17" d="m943.39 31.25 50-31.25 100 62.5-50 31.25-100-62.5z" />
	<path class="cls-18" d="M1130.84 93.22c11.71 0 21.21-5.49 21.21-12.26v12.26c0 6.77-9.5 12.26-21.21 12.26s-21.2-5.49-21.2-12.26V81c0 6.73 9.49 12.22 21.2 12.22ZM1080.22 64c11.71 0 21.21-5.49 21.21-12.26V64c0 6.77-9.5 12.26-21.21 12.26S1059 70.76 1059 64V51.73c0 6.77 9.51 12.27 21.22 12.27Z" transform="translate(-87.03 -37.9)" />
	<ellipse class="cls-19" cx="1043.81" cy="43.06" rx="21.21" ry="12.26" />
	<ellipse class="cls-19" cx="993.19" cy="13.83" rx="21.21" ry="12.26" />
	<path class="cls-4" d="m1279.24 317.97 50-31.25v62.5l-50 31.25v-62.5z" />
	<path class="cls-2" d="m1279.24 317.97-100-62.5v62.5l100 62.5v-62.5z" />
	<path class="cls-1" d="m1179.24 255.47 50-31.25 100 62.5-50 31.25-100-62.5z" />
	<path class="cls-2" d="M1366.69 317.43c11.71 0 21.2-5.48 21.2-12.25v12.25c0 6.78-9.49 12.26-21.2 12.26s-21.21-5.48-21.21-12.26v-12.25c0 6.82 9.52 12.25 21.21 12.25ZM1316.07 288.21c11.71 0 21.2-5.49 21.2-12.26v12.26c0 6.77-9.49 12.26-21.2 12.26s-21.21-5.49-21.21-12.26V276c0 6.72 9.5 12.21 21.21 12.21Z" transform="translate(-87.03 -37.9)" />
	<ellipse class="cls-3" cx="1279.66" cy="267.28" rx="21.21" ry="12.26" />
	<ellipse class="cls-3" cx="1229.04" cy="238.05" rx="21.21" ry="12.26" />
	<path class="cls-20" d="m1279.24 255.47 50-31.25v62.5l-50 31.25v-62.5z" />
	<path class="cls-18" d="m1279.24 255.47-100-62.5v62.5l100 62.5v-62.5z" />
	<path class="cls-17" d="m1179.24 192.97 50-31.25 100 62.5-50 31.25-100-62.5z" />
	<path class="cls-18" d="M1366.69 254.93c11.71 0 21.2-5.48 21.2-12.25v12.25c0 6.78-9.49 12.26-21.2 12.26s-21.21-5.48-21.21-12.26v-12.25c0 6.77 9.52 12.25 21.21 12.25ZM1316.07 225.71c11.71 0 21.2-5.49 21.2-12.26v12.26c0 6.77-9.49 12.26-21.2 12.26s-21.21-5.49-21.21-12.26v-12.26c0 6.77 9.5 12.26 21.21 12.26Z" transform="translate(-87.03 -37.9)" />
	<ellipse class="cls-19" cx="1279.66" cy="204.78" rx="21.21" ry="12.26" />
	<ellipse class="cls-19" cx="1229.04" cy="175.55" rx="21.21" ry="12.26" />
	<path class="cls-20" d="m100 109.38 50-31.25v31.25l-50 31.25v-31.25z" />
	<path class="cls-18" d="M100 109.38 0 46.88v31.25l100 62.5v-31.25z" />
	<path class="cls-17" d="m0 46.88 50-31.25 100 62.5-50 31.25L0 46.88z" />
	<path class="cls-18" d="M187.45 108.84c11.71 0 21.2-5.49 21.2-12.26v12.26c0 6.77-9.49 12.26-21.2 12.26s-21.21-5.49-21.21-12.26V96.58c0 6.77 9.5 12.26 21.21 12.26ZM136.83 79.62c11.71 0 21.2-5.49 21.2-12.26v12.26c0 6.77-9.49 12.26-21.2 12.26s-21.21-5.49-21.21-12.26V67.36c0 6.77 9.5 12.26 21.21 12.26Z" transform="translate(-87.03 -37.9)" />
	<ellipse class="cls-19" cx="100.42" cy="58.68" rx="21.21" ry="12.26" />
	<ellipse class="cls-19" cx="49.8" cy="29.46" rx="21.21" ry="12.26" />
	<path class="cls-4" d="m100 495.31 50-31.25v31.25l-50 31.25v-31.25z" />
	<path class="cls-2" d="M100 495.31 0 432.81v31.25l100 62.5v-31.25z" />
	<path class="cls-1" d="m0 432.81 50-31.25 100 62.5-50 31.25-100-62.5z" />
	<path class="cls-2" d="M187.45 494.78c11.71 0 21.2-5.49 21.2-12.26v12.26c0 6.77-9.49 12.26-21.2 12.26s-21.21-5.49-21.21-12.26v-12.26c0 6.77 9.5 12.26 21.21 12.26ZM136.83 465.55c11.71 0 21.2-5.49 21.2-12.26v12.26c0 6.77-9.49 12.26-21.2 12.26s-21.21-5.49-21.21-12.26v-12.26c0 6.77 9.5 12.26 21.21 12.26Z" transform="translate(-87.03 -37.9)" />
	<ellipse class="cls-3" cx="100.42" cy="444.62" rx="21.21" ry="12.26" />
	<ellipse class="cls-3" cx="49.8" cy="415.39" rx="21.21" ry="12.26" />
	<path class="cls-6" d="m335.85 703.9 50-31.25v31.25l-50 31.25V703.9z" />
	<path class="cls-5" d="m335.85 703.9-100-62.5v31.25l100 62.5V703.9z" />
	<path class="cls-7" d="m235.85 641.4 50-31.25 100 62.5-50 31.25-100-62.5z" />
	<path class="cls-5" d="M423.3 703.37c11.71 0 21.2-5.49 21.2-12.26v12.26c0 6.77-9.49 12.26-21.2 12.26s-21.21-5.49-21.21-12.26v-12.26c0 6.77 9.49 12.26 21.21 12.26ZM372.68 674.14c11.71 0 21.2-5.49 21.2-12.26v12.26c0 6.77-9.49 12.26-21.2 12.26s-21.21-5.49-21.21-12.26v-12.26c0 6.77 9.53 12.26 21.21 12.26Z" transform="translate(-87.03 -37.9)" />
	<ellipse class="cls-8" cx="336.26" cy="653.21" rx="21.21" ry="12.26" />
	<ellipse class="cls-8" cx="285.64" cy="623.98" rx="21.21" ry="12.26" />
	<path class="cls-4" d="m335.85 672.65 50-31.25v31.25l-50 31.25v-31.25z" />
	<path class="cls-2" d="m335.85 672.65-100-62.5v31.25l100 62.5v-31.25z" />
	<path class="cls-1" d="m235.85 610.15 50-31.25 100 62.5-50 31.25-100-62.5z" />
	<path class="cls-2" d="M423.3 672.12c11.71 0 21.2-5.49 21.2-12.26v12.26c0 6.77-9.49 12.26-21.2 12.26s-21.21-5.49-21.21-12.26v-12.26c0 6.77 9.49 12.26 21.21 12.26ZM372.68 642.89c11.71 0 21.2-5.49 21.2-12.26v12.26c0 6.77-9.49 12.26-21.2 12.26s-21.21-5.49-21.21-12.26v-12.26c0 6.77 9.53 12.26 21.21 12.26Z" transform="translate(-87.03 -37.9)" />
	<ellipse class="cls-3" cx="336.26" cy="621.96" rx="21.21" ry="12.26" />
	<ellipse class="cls-3" cx="285.64" cy="592.73" rx="21.21" ry="12.26" />
	<path class="cls-6" d="m100 881.24 50-31.25v31.25l-50 31.25v-31.25z" />
	<path class="cls-5" d="M100 881.24 0 818.74v31.25l100 62.5v-31.25z" />
	<path class="cls-7" d="m0 818.74 50-31.25 100 62.5-50 31.25-100-62.5z" />
	<path class="cls-5" d="M187.45 880.71c11.71 0 21.2-5.49 21.2-12.26v12.26c0 6.77-9.49 12.26-21.2 12.26s-21.21-5.49-21.21-12.26v-12.26c0 6.77 9.5 12.26 21.21 12.26ZM136.83 851.48c11.71 0 21.2-5.48 21.2-12.26v12.26c0 6.77-9.49 12.26-21.2 12.26s-21.21-5.49-21.21-12.26v-12.26c0 6.78 9.5 12.26 21.21 12.26Z" transform="translate(-87.03 -37.9)" />
	<ellipse class="cls-8" cx="100.42" cy="830.55" rx="21.21" ry="12.26" />
	<ellipse class="cls-8" cx="49.8" cy="801.32" rx="21.21" ry="12.26" />
	<path class="cls-16" d="m335.85 1089.83 50-31.25v31.25l-50 31.25v-31.25z" />
	<path class="cls-14" d="m335.85 1089.83-100-62.5v31.25l100 62.5v-31.25z" />
	<path class="cls-13" d="m235.85 1027.33 50-31.25 100 62.5-50 31.25-100-62.5z" />
	<path class="cls-14" d="M423.3 1089.3c11.71 0 21.2-5.49 21.2-12.26v12.26c0 6.77-9.49 12.26-21.2 12.26s-21.21-5.49-21.21-12.26V1077c0 6.81 9.49 12.3 21.21 12.3ZM372.68 1060.08c11.71 0 21.2-5.49 21.2-12.26v12.26c0 6.77-9.49 12.26-21.2 12.26s-21.21-5.49-21.21-12.26v-12.26c0 6.77 9.53 12.26 21.21 12.26Z" transform="translate(-87.03 -37.9)" />
	<ellipse class="cls-15" cx="336.26" cy="1039.14" rx="21.21" ry="12.26" />
	<ellipse class="cls-15" cx="285.64" cy="1009.92" rx="21.21" ry="12.26" />
	<path class="cls-6" d="m335.85 1058.58 50-31.25v31.25l-50 31.25v-31.25z" />
	<path class="cls-5" d="m335.85 1058.58-100-62.5v31.25l100 62.5v-31.25z" />
	<path class="cls-7" d="m235.85 996.08 50-31.25 100 62.5-50 31.25-100-62.5z" />
	<path class="cls-5" d="M423.3 1058.05c11.71 0 21.2-5.49 21.2-12.26v12.26c0 6.77-9.49 12.26-21.2 12.26s-21.21-5.49-21.21-12.26v-12.26c0 6.77 9.49 12.26 21.21 12.26ZM372.68 1028.83c11.71 0 21.2-5.49 21.2-12.26v12.26c0 6.77-9.49 12.26-21.2 12.26s-21.21-5.49-21.21-12.26v-12.26c0 6.77 9.53 12.26 21.21 12.26Z" transform="translate(-87.03 -37.9)" />
	<ellipse class="cls-8" cx="336.26" cy="1007.89" rx="21.21" ry="12.26" />
	<ellipse class="cls-8" cx="285.64" cy="978.67" rx="21.21" ry="12.26" />
	<path class="cls-16" d="m100 1267.17 50-31.25v31.25l-50 31.25v-31.25z" />
	<path class="cls-14" d="m100 1267.17-100-62.5v31.25l100 62.5v-31.25z" />
	<path class="cls-13" d="m0 1204.67 50-31.25 100 62.5-50 31.25-100-62.5z" />
	<path class="cls-14" d="M187.45 1266.64c11.71 0 21.2-5.49 21.2-12.26v12.26c0 6.77-9.49 12.26-21.2 12.26s-21.21-5.49-21.21-12.26v-12.26c0 6.77 9.5 12.26 21.21 12.26ZM136.83 1237.42c11.71 0 21.2-5.49 21.2-12.26v12.26c0 6.77-9.49 12.26-21.2 12.26s-21.21-5.49-21.21-12.26v-12.26c0 6.77 9.5 12.26 21.21 12.26Z" transform="translate(-87.03 -37.9)" />
	<ellipse class="cls-15" cx="100.42" cy="1216.48" rx="21.21" ry="12.26" />
	<ellipse class="cls-15" cx="49.8" cy="1187.26" rx="21.21" ry="12.26" />
	<path class="cls-12" d="m335.85 1475.77 50-31.25v31.25l-50 31.25v-31.25z" />
	<path class="cls-10" d="m335.85 1475.77-100-62.5v31.25l100 62.5v-31.25z" />
	<path class="cls-9" d="m235.85 1413.27 50-31.25 100 62.5-50 31.25-100-62.5z" />
	<path class="cls-10" d="M423.3 1475.24c11.71 0 21.2-5.49 21.2-12.26v12.26c0 6.77-9.49 12.25-21.2 12.25s-21.21-5.48-21.21-12.25V1463c0 6.75 9.49 12.24 21.21 12.24ZM372.68 1446c11.71 0 21.2-5.49 21.2-12.26V1446c0 6.77-9.49 12.26-21.2 12.26s-21.21-5.49-21.21-12.26v-12.26c0 6.78 9.53 12.26 21.21 12.26Z" transform="translate(-87.03 -37.9)" />
	<ellipse class="cls-11" cx="336.26" cy="1425.08" rx="21.21" ry="12.26" />
	<ellipse class="cls-11" cx="285.64" cy="1395.85" rx="21.21" ry="12.26" />
	<path class="cls-16" d="m335.85 1444.52 50-31.25v31.25l-50 31.25v-31.25z" />
	<path class="cls-14" d="m335.85 1444.52-100-62.5v31.25l100 62.5v-31.25z" />
	<path class="cls-13" d="m235.85 1382.02 50-31.25 100 62.5-50 31.25-100-62.5z" />
	<path class="cls-14" d="M423.3 1444c11.71 0 21.2-5.49 21.2-12.26V1444c0 6.77-9.49 12.25-21.2 12.25s-21.21-5.48-21.21-12.25v-12.26c0 6.76 9.49 12.26 21.21 12.26ZM372.68 1414.76c11.71 0 21.2-5.49 21.2-12.26v12.26c0 6.77-9.49 12.26-21.2 12.26s-21.21-5.49-21.21-12.26v-12.26c0 6.77 9.53 12.26 21.21 12.26Z" transform="translate(-87.03 -37.9)" />
	<ellipse class="cls-15" cx="336.26" cy="1393.83" rx="21.21" ry="12.26" />
	<ellipse class="cls-15" cx="285.64" cy="1364.6" rx="21.21" ry="12.26" />
	<path class="cls-12" d="m100 1653.11 50-31.25v31.25l-50 31.25v-31.25z" />
	<path class="cls-10" d="m100 1653.11-100-62.5v31.25l100 62.5v-31.25z" />
	<path class="cls-9" d="m0 1590.61 50-31.25 100 62.5-50 31.25-100-62.5z" />
	<path class="cls-10" d="M187.45 1652.58c11.71 0 21.2-5.49 21.2-12.26v12.26c0 6.77-9.49 12.26-21.2 12.26s-21.21-5.49-21.21-12.26v-12.26c0 6.77 9.5 12.26 21.21 12.26ZM136.83 1623.35c11.71 0 21.2-5.49 21.2-12.26v12.26c0 6.77-9.49 12.26-21.2 12.26s-21.21-5.49-21.21-12.26v-12.26c0 6.77 9.5 12.26 21.21 12.26Z" transform="translate(-87.03 -37.9)" />
	<ellipse class="cls-11" cx="100.42" cy="1602.42" rx="21.21" ry="12.26" />
	<ellipse class="cls-11" cx="49.8" cy="1573.19" rx="21.21" ry="12.26" />
	<path class="cls-20" d="m335.85 1861.7 50-31.25v31.25l-50 31.25v-31.25z" />
	<path class="cls-18" d="m335.85 1861.7-100-62.5v31.25l100 62.5v-31.25z" />
	<path class="cls-17" d="m235.85 1799.2 50-31.25 100 62.5-50 31.25-100-62.5z" />
	<path class="cls-18" d="M423.3 1861.17c11.71 0 21.2-5.49 21.2-12.26v12.26c0 6.77-9.49 12.26-21.2 12.26s-21.21-5.49-21.21-12.26v-12.26c0 6.77 9.49 12.26 21.21 12.26ZM372.68 1831.94c11.71 0 21.2-5.49 21.2-12.26v12.26c0 6.77-9.49 12.26-21.2 12.26s-21.21-5.49-21.21-12.26v-12.26c0 6.77 9.53 12.26 21.21 12.26Z" transform="translate(-87.03 -37.9)" />
	<ellipse class="cls-19" cx="336.26" cy="1811.01" rx="21.21" ry="12.26" />
	<ellipse class="cls-19" cx="285.64" cy="1781.78" rx="21.21" ry="12.26" />
	<path class="cls-12" d="m335.85 1830.45 50-31.25v31.25l-50 31.25v-31.25z" />
	<path class="cls-10" d="m335.85 1830.45-100-62.5v31.25l100 62.5v-31.25z" />
	<path class="cls-9" d="m235.85 1767.95 50-31.25 100 62.5-50 31.25-100-62.5z" />
	<path class="cls-10" d="M423.3 1829.92c11.71 0 21.2-5.49 21.2-12.26v12.26c0 6.77-9.49 12.26-21.2 12.26s-21.21-5.49-21.21-12.26v-12.26c0 6.77 9.49 12.26 21.21 12.26ZM372.68 1800.69c11.71 0 21.2-5.49 21.2-12.26v12.26c0 6.77-9.49 12.26-21.2 12.26s-21.21-5.49-21.21-12.26v-12.26c0 6.77 9.53 12.26 21.21 12.26Z" transform="translate(-87.03 -37.9)" />
	<ellipse class="cls-11" cx="336.26" cy="1779.76" rx="21.21" ry="12.26" />
	<ellipse class="cls-11" cx="285.64" cy="1750.53" rx="21.21" ry="12.26" />
	<path class="cls-20" d="m546.7 78.35 50-31.25v62.5l-50 31.25v-62.5z" />
	<path class="cls-18" d="m546.7 78.35-50-31.25v62.5l50 31.25v-62.5z" />
	<path class="cls-17" d="m496.7 47.1 50-31.25 50 31.25-50 31.25-50-31.25z" />
	<path class="cls-18" d="M634.14 77.82c11.72 0 21.21-5.49 21.21-12.26v12.26c0 6.77-9.49 12.26-21.21 12.26s-21.2-5.49-21.2-12.26V65.56c0 6.77 9.49 12.26 21.2 12.26Z" transform="translate(-87.03 -37.9)" />
	<ellipse class="cls-19" cx="547.11" cy="27.66" rx="21.21" ry="12.26" />
	<path class="cls-16" d="m546.7 1236.15 50-31.25v62.5l-50 31.25v-62.5z" />
	<path class="cls-14" d="m546.7 1236.15-50-31.25v62.5l50 31.25v-62.5z" />
	<path class="cls-13" d="m496.7 1204.9 50-31.25 50 31.25-50 31.25-50-31.25z" />
	<path class="cls-14" d="M634.14 1235.62c11.72 0 21.21-5.49 21.21-12.26v12.26c0 6.77-9.49 12.26-21.21 12.26s-21.2-5.49-21.2-12.26v-12.26c0 6.77 9.49 12.26 21.2 12.26Z" transform="translate(-87.03 -37.9)" />
	<ellipse class="cls-15" cx="547.11" cy="1185.46" rx="21.21" ry="12.26" />
	<path class="cls-12" d="m546.7 1622.08 50-31.25v62.5l-50 31.25v-62.5z" />
	<path class="cls-10" d="m546.7 1622.08-50-31.25v62.5l50 31.25v-62.5z" />
	<path class="cls-9" d="m496.7 1590.83 50-31.25 50 31.25-50 31.25-50-31.25z" />
	<path class="cls-10" d="M634.14 1621.55c11.72 0 21.21-5.49 21.21-12.26v12.26c0 6.77-9.49 12.26-21.21 12.26s-21.2-5.49-21.2-12.26v-12.26c0 6.77 9.49 12.26 21.2 12.26Z" transform="translate(-87.03 -37.9)" />
	<ellipse class="cls-11" cx="547.11" cy="1571.39" rx="21.21" ry="12.26" />
	<path class="cls-4" d="m782.54 302.57 50-31.25v62.5l-50 31.25v-62.5z" />
	<path class="cls-2" d="m782.54 302.57-50-31.25v62.5l50 31.25v-62.5z" />
	<path class="cls-1" d="m732.54 271.32 50-31.25 50 31.25-50 31.25-50-31.25z" />
	<path class="cls-2" d="M870 302c11.71 0 21.21-5.48 21.21-12.25V302c0 6.78-9.5 12.26-21.21 12.26s-21.2-5.48-21.2-12.26v-12.22c-.01 6.77 9.48 12.22 21.2 12.22Z" transform="translate(-87.03 -37.9)" />
	<ellipse class="cls-3" cx="782.96" cy="251.88" rx="21.21" ry="12.26" />
	<path class="cls-20" d="m782.54 240.07 50-31.25v62.5l-50 31.25v-62.5z" />
	<path class="cls-18" d="m782.54 240.07-50-31.25v62.5l50 31.25v-62.5z" />
	<path class="cls-17" d="m732.54 208.82 50-31.25 50 31.25-50 31.25-50-31.25z" />
	<path class="cls-18" d="M870 239.53c11.71 0 21.21-5.48 21.21-12.25v12.25c0 6.78-9.5 12.26-21.21 12.26s-21.2-5.48-21.2-12.26v-12.25c-.01 6.77 9.48 12.25 21.2 12.25Z" transform="translate(-87.03 -37.9)" />
	<ellipse class="cls-19" cx="782.96" cy="189.38" rx="21.21" ry="12.26" />
	<path class="cls-6" d="m782.54 688.5 50-31.25v62.5l-50 31.25v-62.5z" />
	<path class="cls-5" d="m782.54 688.5-50-31.25v62.5l50 31.25v-62.5z" />
	<path class="cls-7" d="m732.54 657.25 50-31.25 50 31.25-50 31.25-50-31.25z" />
	<path class="cls-5" d="M870 688c11.71 0 21.21-5.49 21.21-12.26V688c0 6.77-9.5 12.26-21.21 12.26s-21.2-5.49-21.2-12.26v-12.29c-.01 6.77 9.48 12.29 21.2 12.29Z" transform="translate(-87.03 -37.9)" />
	<ellipse class="cls-8" cx="782.96" cy="637.81" rx="21.21" ry="12.26" />
	<path class="cls-4" d="m782.54 626 50-31.25v62.5l-50 31.25V626z" />
	<path class="cls-2" d="m782.54 626-50-31.25v62.5l50 31.25V626z" />
	<path class="cls-1" d="m732.54 594.75 50-31.25 50 31.25-50 31.25-50-31.25z" />
	<path class="cls-2" d="M870 625.47c11.71 0 21.21-5.49 21.21-12.26v12.26c0 6.77-9.5 12.26-21.21 12.26s-21.2-5.49-21.2-12.26v-12.26c-.01 6.79 9.48 12.26 21.2 12.26Z" transform="translate(-87.03 -37.9)" />
	<ellipse class="cls-3" cx="782.96" cy="575.31" rx="21.21" ry="12.26" />
	<path class="cls-4" d="m546.7 464.28 50-31.25v62.5l-50 31.25v-62.5z" />
	<path class="cls-2" d="m546.7 464.28-50-31.25v62.5l50 31.25v-62.5z" />
	<path class="cls-1" d="m496.7 433.03 50-31.25 50 31.25-50 31.25-50-31.25z" />
	<path class="cls-2" d="M634.14 463.75c11.72 0 21.21-5.49 21.21-12.26v12.26c0 6.77-9.49 12.26-21.21 12.26s-21.2-5.49-21.2-12.26v-12.26c0 6.77 9.49 12.26 21.2 12.26Z" transform="translate(-87.03 -37.9)" />
	<ellipse class="cls-3" cx="547.11" cy="413.59" rx="21.21" ry="12.26" />
	<path class="cls-16" d="m782.54 1074.43 50-31.25v62.5l-50 31.25v-62.5z" />
	<path class="cls-14" d="m782.54 1074.43-50-31.25v62.5l50 31.25v-62.5z" />
	<path class="cls-13" d="m732.54 1043.18 50-31.25 50 31.25-50 31.25-50-31.25z" />
	<path class="cls-14" d="M870 1073.9c11.71 0 21.21-5.49 21.21-12.26v12.26c0 6.77-9.5 12.26-21.21 12.26s-21.2-5.49-21.2-12.26v-12.26c-.01 6.77 9.48 12.26 21.2 12.26Z" transform="translate(-87.03 -37.9)" />
	<ellipse class="cls-15" cx="782.96" cy="1023.74" rx="21.21" ry="12.26" />
	<path class="cls-6" d="m782.54 1011.93 50-31.25v62.5l-50 31.25v-62.5z" />
	<path class="cls-5" d="m782.54 1011.93-50-31.25v62.5l50 31.25v-62.5z" />
	<path class="cls-7" d="m732.54 980.68 50-31.25 50 31.25-50 31.25-50-31.25z" />
	<path class="cls-5" d="M870 1011.4c11.71 0 21.21-5.49 21.21-12.26v12.26c0 6.77-9.5 12.26-21.21 12.26s-21.2-5.49-21.2-12.26v-12.26c-.01 6.77 9.48 12.26 21.2 12.26Z" transform="translate(-87.03 -37.9)" />
	<ellipse class="cls-8" cx="782.96" cy="961.24" rx="21.21" ry="12.26" />
	<path class="cls-6" d="m546.7 850.22 50-31.25v62.5l-50 31.25v-62.5z" />
	<path class="cls-5" d="m546.7 850.22-50-31.25v62.5l50 31.25v-62.5z" />
	<path class="cls-7" d="m496.7 818.97 50-31.25 50 31.25-50 31.25-50-31.25z" />
	<path class="cls-5" d="M634.14 849.69c11.72 0 21.21-5.49 21.21-12.26v12.26c0 6.77-9.49 12.25-21.21 12.25s-21.2-5.48-21.2-12.25v-12.26c0 6.77 9.49 12.26 21.2 12.26Z" transform="translate(-87.03 -37.9)" />
	<ellipse class="cls-8" cx="547.11" cy="799.53" rx="21.21" ry="12.26" />
	<path class="cls-12" d="m782.54 1460.37 50-31.25v62.5l-50 31.25v-62.5z" />
	<path class="cls-10" d="m782.54 1460.37-50-31.25v62.5l50 31.25v-62.5z" />
	<path class="cls-9" d="m732.54 1429.12 50-31.25 50 31.25-50 31.25-50-31.25z" />
	<path class="cls-10" d="M870 1459.84c11.71 0 21.21-5.49 21.21-12.26v12.26c0 6.77-9.5 12.25-21.21 12.25s-21.2-5.48-21.2-12.25v-12.26c-.01 6.77 9.48 12.26 21.2 12.26Z" transform="translate(-87.03 -37.9)" />
	<ellipse class="cls-11" cx="782.96" cy="1409.68" rx="21.21" ry="12.26" />
	<path class="cls-16" d="m782.54 1397.87 50-31.25v62.5l-50 31.25v-62.5z" />
	<path class="cls-14" d="m782.54 1397.87-50-31.25v62.5l50 31.25v-62.5z" />
	<path class="cls-13" d="m732.54 1366.62 50-31.25 50 31.25-50 31.25-50-31.25z" />
	<path class="cls-14" d="M870 1397.34c11.71 0 21.21-5.49 21.21-12.26v12.26c0 6.77-9.5 12.25-21.21 12.25s-21.2-5.48-21.2-12.25v-12.26c-.01 6.77 9.48 12.26 21.2 12.26Z" transform="translate(-87.03 -37.9)" />
	<ellipse class="cls-15" cx="782.96" cy="1347.18" rx="21.21" ry="12.26" />
	<path class="cls-20" d="m782.54 1846.3 50-31.25v62.5l-50 31.25v-62.5z" />
	<path class="cls-18" d="m782.54 1846.3-50-31.25v62.5l50 31.25v-62.5z" />
	<path class="cls-17" d="m732.54 1815.05 50-31.25 50 31.25-50 31.25-50-31.25z" />
	<path class="cls-18" d="M870 1845.77c11.71 0 21.21-5.49 21.21-12.26v12.26c0 6.77-9.5 12.26-21.21 12.26s-21.2-5.49-21.2-12.26v-12.26c-.01 6.77 9.48 12.26 21.2 12.26Z" transform="translate(-87.03 -37.9)" />
	<ellipse class="cls-19" cx="782.96" cy="1795.61" rx="21.21" ry="12.26" />
	<path class="cls-12" d="m782.54 1783.8 50-31.25v62.5l-50 31.25v-62.5z" />
	<path class="cls-10" d="m782.54 1783.8-50-31.25v62.5l50 31.25v-62.5z" />
	<path class="cls-9" d="m732.54 1752.55 50-31.25 50 31.25-50 31.25-50-31.25z" />
	<path class="cls-10" d="M870 1783.27c11.71 0 21.21-5.49 21.21-12.26v12.26c0 6.77-9.5 12.26-21.21 12.26s-21.2-5.49-21.2-12.26V1771c-.01 6.78 9.48 12.27 21.2 12.27Z" transform="translate(-87.03 -37.9)" />
	<ellipse class="cls-11" cx="782.96" cy="1733.11" rx="21.21" ry="12.26" />
	<path class="cls-4" d="m1043.39 479.68 50-31.25v62.5l-50 31.25v-62.5z" />
	<path class="cls-2" d="m1043.39 479.68-100-62.5v62.5l100 62.5v-62.5z" />
	<path class="cls-1" d="m943.39 417.18 50-31.25 100 62.5-50 31.25-100-62.5z" />
	<path class="cls-2" d="M1130.84 479.15c11.71 0 21.21-5.49 21.21-12.26v12.26c0 6.77-9.5 12.26-21.21 12.26s-21.2-5.49-21.2-12.26v-12.26c0 6.77 9.49 12.26 21.2 12.26ZM1080.22 449.93c11.71 0 21.21-5.49 21.21-12.26v12.26c0 6.77-9.5 12.26-21.21 12.26S1059 456.7 1059 449.93v-12.26c0 6.77 9.51 12.26 21.22 12.26Z" transform="translate(-87.03 -37.9)" />
	<ellipse class="cls-3" cx="1043.81" cy="428.99" rx="21.21" ry="12.26" />
	<ellipse class="cls-3" cx="993.19" cy="399.77" rx="21.21" ry="12.26" />
	<path class="cls-6" d="m1279.24 703.9 50-31.25v62.5l-50 31.25v-62.5z" />
	<path class="cls-5" d="m1279.24 703.9-100-62.5v62.5l100 62.5v-62.5z" />
	<path class="cls-7" d="m1179.24 641.4 50-31.25 100 62.5-50 31.25-100-62.5z" />
	<path class="cls-5" d="M1366.69 703.37c11.71 0 21.2-5.49 21.2-12.26v12.26c0 6.77-9.49 12.26-21.2 12.26s-21.21-5.49-21.21-12.26v-12.26c0 6.77 9.52 12.26 21.21 12.26ZM1316.07 674.14c11.71 0 21.2-5.49 21.2-12.26v12.26c0 6.77-9.49 12.26-21.2 12.26s-21.21-5.49-21.21-12.26v-12.26c0 6.77 9.5 12.26 21.21 12.26Z" transform="translate(-87.03 -37.9)" />
	<ellipse class="cls-8" cx="1279.66" cy="653.21" rx="21.21" ry="12.26" />
	<ellipse class="cls-8" cx="1229.04" cy="623.98" rx="21.21" ry="12.26" />
	<path class="cls-4" d="m1279.24 641.4 50-31.25v62.5l-50 31.25v-62.5z" />
	<path class="cls-2" d="m1279.24 641.4-100-62.5v62.5l100 62.5v-62.5z" />
	<path class="cls-1" d="m1179.24 578.9 50-31.25 100 62.5-50 31.25-100-62.5z" />
	<path class="cls-2" d="M1366.69 640.87c11.71 0 21.2-5.49 21.2-12.26v12.26c0 6.77-9.49 12.26-21.2 12.26s-21.21-5.49-21.21-12.26v-12.26c0 6.77 9.52 12.26 21.21 12.26ZM1316.07 611.64c11.71 0 21.2-5.49 21.2-12.26v12.26c0 6.77-9.49 12.26-21.2 12.26s-21.21-5.49-21.21-12.26v-12.26c0 6.77 9.5 12.26 21.21 12.26Z" transform="translate(-87.03 -37.9)" />
	<ellipse class="cls-3" cx="1279.66" cy="590.71" rx="21.21" ry="12.26" />
	<ellipse class="cls-3" cx="1229.04" cy="561.48" rx="21.21" ry="12.26" />
	<path class="cls-6" d="m1043.39 865.62 50-31.25v62.5l-50 31.25v-62.5z" />
	<path class="cls-5" d="m1043.39 865.62-100-62.5v62.5l100 62.5v-62.5z" />
	<path class="cls-7" d="m943.39 803.12 50-31.25 100 62.5-50 31.25-100-62.5z" />
	<path class="cls-5" d="M1130.84 865.09c11.71 0 21.21-5.49 21.21-12.26v12.26c0 6.77-9.5 12.25-21.21 12.25s-21.2-5.48-21.2-12.25v-12.26c0 6.77 9.49 12.26 21.2 12.26ZM1080.22 835.86c11.71 0 21.21-5.49 21.21-12.26v12.26c0 6.77-9.5 12.26-21.21 12.26s-21.22-5.49-21.22-12.26V823.6c0 6.77 9.51 12.26 21.22 12.26Z" transform="translate(-87.03 -37.9)" />
	<ellipse class="cls-8" cx="1043.81" cy="814.93" rx="21.21" ry="12.26" />
	<ellipse class="cls-8" cx="993.19" cy="785.7" rx="21.21" ry="12.26" />
	<path class="cls-16" d="m1279.24 1089.83 50-31.25v62.5l-50 31.25v-62.5z" />
	<path class="cls-14" d="m1279.24 1089.83-100-62.5v62.5l100 62.5v-62.5z" />
	<path class="cls-13" d="m1179.24 1027.33 50-31.25 100 62.5-50 31.25-100-62.5z" />
	<path class="cls-14" d="M1366.69 1089.3c11.71 0 21.2-5.49 21.2-12.26v12.26c0 6.77-9.49 12.26-21.2 12.26s-21.21-5.49-21.21-12.26V1077c0 6.81 9.52 12.3 21.21 12.3ZM1316.07 1060.08c11.71 0 21.2-5.49 21.2-12.26v12.26c0 6.77-9.49 12.26-21.2 12.26s-21.21-5.49-21.21-12.26v-12.26c0 6.77 9.5 12.26 21.21 12.26Z" transform="translate(-87.03 -37.9)" />
	<ellipse class="cls-15" cx="1279.66" cy="1039.14" rx="21.21" ry="12.26" />
	<ellipse class="cls-15" cx="1229.04" cy="1009.92" rx="21.21" ry="12.26" />
	<path class="cls-6" d="m1279.24 1027.33 50-31.25v62.5l-50 31.25v-62.5z" />
	<path class="cls-5" d="m1279.24 1027.33-100-62.5v62.5l100 62.5v-62.5z" />
	<path class="cls-7" d="m1179.24 964.83 50-31.25 100 62.5-50 31.25-100-62.5z" />
	<path class="cls-5" d="M1366.69 1026.8c11.71 0 21.2-5.49 21.2-12.26v12.26c0 6.77-9.49 12.26-21.2 12.26s-21.21-5.49-21.21-12.26v-12.26c0 6.77 9.52 12.26 21.21 12.26ZM1316.07 997.58c11.71 0 21.2-5.49 21.2-12.26v12.26c0 6.77-9.49 12.26-21.2 12.26s-21.21-5.49-21.21-12.26v-12.26c0 6.77 9.5 12.26 21.21 12.26Z" transform="translate(-87.03 -37.9)" />
	<ellipse class="cls-8" cx="1279.66" cy="976.64" rx="21.21" ry="12.26" />
	<ellipse class="cls-8" cx="1229.04" cy="947.42" rx="21.21" ry="12.26" />
	<path class="cls-16" d="m1043.39 1251.55 50-31.25v62.5l-50 31.25v-62.5z" />
	<path class="cls-14" d="m1043.39 1251.55-100-62.5v62.5l100 62.5v-62.5z" />
	<path class="cls-13" d="m943.39 1189.05 50-31.25 100 62.5-50 31.25-100-62.5z" />
	<path class="cls-14" d="M1130.84 1251c11.71 0 21.21-5.49 21.21-12.26V1251c0 6.77-9.5 12.26-21.21 12.26s-21.2-5.49-21.2-12.26v-12.26c0 6.79 9.49 12.26 21.2 12.26ZM1080.22 1221.79c11.71 0 21.21-5.49 21.21-12.26v12.26c0 6.77-9.5 12.26-21.21 12.26s-21.21-5.49-21.21-12.26v-12.26c-.01 6.77 9.5 12.26 21.21 12.26Z" transform="translate(-87.03 -37.9)" />
	<ellipse class="cls-15" cx="1043.81" cy="1200.86" rx="21.21" ry="12.26" />
	<ellipse class="cls-15" cx="993.19" cy="1171.63" rx="21.21" ry="12.26" />
	<path class="cls-12" d="m1279.24 1475.77 50-31.25v62.5l-50 31.25v-62.5z" />
	<path class="cls-10" d="m1279.24 1475.77-100-62.5v62.5l100 62.5v-62.5z" />
	<path class="cls-9" d="m1179.24 1413.27 50-31.25 100 62.5-50 31.25-100-62.5z" />
	<path class="cls-10" d="M1366.69 1475.24c11.71 0 21.2-5.49 21.2-12.26v12.26c0 6.77-9.49 12.25-21.2 12.25s-21.21-5.48-21.21-12.25V1463c0 6.75 9.52 12.24 21.21 12.24ZM1316.07 1446c11.71 0 21.2-5.49 21.2-12.26V1446c0 6.77-9.49 12.26-21.2 12.26s-21.21-5.49-21.21-12.26v-12.26c0 6.78 9.5 12.26 21.21 12.26Z" transform="translate(-87.03 -37.9)" />
	<ellipse class="cls-11" cx="1279.66" cy="1425.08" rx="21.21" ry="12.26" />
	<ellipse class="cls-11" cx="1229.04" cy="1395.85" rx="21.21" ry="12.26" />
	<path class="cls-16" d="m1279.24 1413.27 50-31.25v62.5l-50 31.25v-62.5z" />
	<path class="cls-14" d="m1279.24 1413.27-100-62.5v62.5l100 62.5v-62.5z" />
	<path class="cls-13" d="m1179.24 1350.77 50-31.25 100 62.5-50 31.25-100-62.5z" />
	<path class="cls-14" d="M1366.69 1412.74c11.71 0 21.2-5.49 21.2-12.26v12.26c0 6.77-9.49 12.25-21.2 12.25s-21.21-5.48-21.21-12.25v-12.26c0 6.77 9.52 12.26 21.21 12.26ZM1316.07 1383.51c11.71 0 21.2-5.49 21.2-12.26v12.26c0 6.77-9.49 12.26-21.2 12.26s-21.21-5.49-21.21-12.26v-12.26c0 6.75 9.5 12.26 21.21 12.26Z" transform="translate(-87.03 -37.9)" />
	<ellipse class="cls-15" cx="1279.66" cy="1362.58" rx="21.21" ry="12.26" />
	<ellipse class="cls-15" cx="1229.04" cy="1333.35" rx="21.21" ry="12.26" />
	<path class="cls-12" d="m1043.39 1637.48 50-31.25v62.5l-50 31.25v-62.5z" />
	<path class="cls-10" d="m1043.39 1637.48-100-62.5v62.5l100 62.5v-62.5z" />
	<path class="cls-9" d="m943.39 1574.98 50-31.25 100 62.5-50 31.25-100-62.5z" />
	<path class="cls-10" d="M1130.84 1637c11.71 0 21.21-5.49 21.21-12.26V1637c0 6.77-9.5 12.26-21.21 12.26s-21.2-5.49-21.2-12.26v-12.26c0 6.72 9.49 12.26 21.2 12.26ZM1080.22 1607.73c11.71 0 21.21-5.49 21.21-12.26v12.26c0 6.77-9.5 12.26-21.21 12.26s-21.21-5.49-21.21-12.26v-12.26c-.01 6.77 9.5 12.26 21.21 12.26Z" transform="translate(-87.03 -37.9)" />
	<ellipse class="cls-11" cx="1043.81" cy="1586.79" rx="21.21" ry="12.26" />
	<ellipse class="cls-11" cx="993.19" cy="1557.57" rx="21.21" ry="12.26" />
	<path class="cls-20" d="m1279.24 1861.7 50-31.25v62.5l-50 31.25v-62.5z" />
	<path class="cls-18" d="m1279.24 1861.7-100-62.5v62.5l100 62.5v-62.5z" />
	<path class="cls-17" d="m1179.24 1799.2 50-31.25 100 62.5-50 31.25-100-62.5z" />
	<path class="cls-18" d="M1366.69 1861.17c11.71 0 21.2-5.49 21.2-12.26v12.26c0 6.77-9.49 12.26-21.2 12.26s-21.21-5.49-21.21-12.26v-12.26c0 6.77 9.52 12.26 21.21 12.26ZM1316.07 1831.94c11.71 0 21.2-5.49 21.2-12.26v12.26c0 6.77-9.49 12.26-21.2 12.26s-21.21-5.49-21.21-12.26v-12.26c0 6.77 9.5 12.26 21.21 12.26Z" transform="translate(-87.03 -37.9)" />
	<ellipse class="cls-19" cx="1279.66" cy="1811.01" rx="21.21" ry="12.26" />
	<ellipse class="cls-19" cx="1229.04" cy="1781.78" rx="21.21" ry="12.26" />
	<path class="cls-12" d="m1279.24 1799.2 50-31.25v62.5l-50 31.25v-62.5z" />
	<path class="cls-10" d="m1279.24 1799.2-100-62.5v62.5l100 62.5v-62.5z" />
	<path class="cls-9" d="m1179.24 1736.7 50-31.25 100 62.5-50 31.25-100-62.5z" />
	<path class="cls-10" d="M1366.69 1798.67c11.71 0 21.2-5.49 21.2-12.26v12.26c0 6.77-9.49 12.26-21.2 12.26s-21.21-5.49-21.21-12.26v-12.26c0 6.77 9.52 12.26 21.21 12.26ZM1316.07 1769.44c11.71 0 21.2-5.49 21.2-12.26v12.26c0 6.77-9.49 12.26-21.2 12.26s-21.21-5.49-21.21-12.26v-12.26c0 6.82 9.5 12.26 21.21 12.26Z" transform="translate(-87.03 -37.9)" />
	<ellipse class="cls-11" cx="1279.66" cy="1748.51" rx="21.21" ry="12.26" />
	<ellipse class="cls-11" cx="1229.04" cy="1719.28" rx="21.21" ry="12.26" />
	<path class="cls-4" d="m335.85 317.97 50-31.25v31.25l-50 31.25v-31.25z" />
	<path class="cls-2" d="m335.85 317.97-100-62.5v31.25l100 62.5v-31.25z" />
	<path class="cls-1" d="m235.85 255.47 50-31.25 100 62.5-50 31.25-100-62.5z" />
	<path class="cls-2" d="M423.3 317.43c11.71 0 21.2-5.48 21.2-12.25v12.25c0 6.78-9.49 12.26-21.2 12.26s-21.21-5.48-21.21-12.26v-12.25c0 6.82 9.49 12.25 21.21 12.25ZM372.68 288.21c11.71 0 21.2-5.49 21.2-12.26v12.26c0 6.77-9.49 12.26-21.2 12.26s-21.21-5.49-21.21-12.26V276c0 6.72 9.53 12.21 21.21 12.21Z" transform="translate(-87.03 -37.9)" />
	<ellipse class="cls-3" cx="336.26" cy="267.28" rx="21.21" ry="12.26" />
	<ellipse class="cls-3" cx="285.64" cy="238.05" rx="21.21" ry="12.26" />
	<path class="cls-20" d="m335.85 286.72 50-31.25v31.25l-50 31.25v-31.25z" />
	<path class="cls-18" d="m335.85 286.72-100-62.5v31.25l100 62.5v-31.25z" />
	<path class="cls-17" d="m235.85 224.22 50-31.25 100 62.5-50 31.25-100-62.5z" />
	<path class="cls-18" d="M423.3 286.18c11.71 0 21.2-5.48 21.2-12.25v12.25c0 6.78-9.49 12.26-21.2 12.26s-21.21-5.48-21.21-12.26v-12.25c0 6.77 9.49 12.25 21.21 12.25ZM372.68 257c11.71 0 21.2-5.49 21.2-12.26V257c0 6.77-9.49 12.26-21.2 12.26s-21.21-5.49-21.21-12.26v-12.3c0 6.77 9.53 12.3 21.21 12.3Z" transform="translate(-87.03 -37.9)" />
	<ellipse class="cls-19" cx="336.26" cy="236.03" rx="21.21" ry="12.26" />
	<ellipse class="cls-19" cx="285.64" cy="206.8" rx="21.21" ry="12.26" />
</svg>
