<svg xmlns="http://www.w3.org/2000/svg" viewBox="0 0 2000 442.92" role="img" aria-label="Knoetic company logo">
	<path d="m106.2 306.94-37.56 39.5v90.66H0V0h68.64v256.43l123.68-126.92h86.12L152.17 259.67 290.75 437.1h-80.3ZM609.77 244.13v193h-68.64V267.44c0-51.16-27.19-80.3-70.58-80.3-40.79 0-77.05 26.55-77.05 82.89V437.1h-68.65V129.51h67.34v45.33c20.07-36.27 56.33-51.16 96.48-51.16 69.94 0 121.1 44.03 121.1 120.45ZM1022.5 283.63c0-86.77 63.46-159.95 158.65-159.95 89.36 0 154.76 71.89 154.76 157.36a125.91 125.91 0 0 1-1.94 22H1087.9c7.77 46 44 79 97.13 79 32.38 0 64.76-12.31 84.18-38.21l46 36.26c-27.84 39.5-76.41 62.81-129.51 62.81-91.97.02-163.2-69.27-163.2-159.27Zm245.42-31.08c-5.83-39.5-42.74-68-87.42-68-43.38 0-78.35 27.19-90 68ZM1413.45 196.21h-57v-66.7h57V51.16h68.64v78.35h61.18v66.7h-61.18V437.1h-68.64ZM1699.54 283c0-88.72 71.88-160 161.89-160 57.63 0 107.49 28.5 137.28 72.53l-57 33c-17.48-25.91-46.62-41.45-80.29-41.45-53.75 0-96.49 43.39-96.49 95.84s42.74 96.49 96.49 96.49c35 0 64.75-16.84 82.23-44.68l56.35 33.73c-29.14 45.32-80.3 74.46-138.57 74.46-90.01 0-161.89-71.87-161.89-159.92ZM1582.22 129.51h68.64V437.1h-68.64Z" />
	<ellipse cx="1617.55" cy="47.17" rx="41.76" ry="40.9" />
	<path d="M797.57 126.53v66a94.43 94.43 0 0 0-48.88 29.39L691.75 189a159.1 159.1 0 0 1 105.82-62.47ZM797.57 377v65.89a159.69 159.69 0 0 1-137.69-158.16 157.24 157.24 0 0 1 10.54-57l57.38 33.2A95.16 95.16 0 0 0 797.57 377ZM979.5 284.72a159.69 159.69 0 0 1-137.69 158.2V377a94.89 94.89 0 0 0 0-184.54v-66A159.69 159.69 0 0 1 979.5 284.72Z" />
</svg>
