<svg xmlns="http://www.w3.org/2000/svg" viewBox="0 0 250 60" role="img" aria-label="Parsons company logo"><path d="M4 23v-3h21v3M15 8h7v4h3V0h-3v5h-7V0h-3v12h3V8Zm20 1.6h-5v-2h4V5h-4V3h5V0h-8v12h8V9.6Zm8-5h.5l7.1 7.5H54V0h-3v7.7h-.5l-7-7.7H40v12h3V4.6Zm21 5h-6v-2h5V5h-5V3h6V0h-9v12h9V9.6Zm9.1 2.4 2.5-9.3h.8l2.8 9.3h5.3L88 0h-3.4l-2.3 9.2h-.7L78.8 0h-5.5l-2.4 9.2h-.7L67.4 0H64l3.8 12h5.3Zm24.4-3.1c0 .6-.3 1-1.7 1S93 9.6 91.7 9l-.1 2.7c1.3.5 2.7.8 4.2.8 3.2 0 4.7-1.9 4.7-4 0-4-6.2-2.9-6.2-4.9 0-.6.6-1 1.6-1 1.3 0 2.5.3 3.7.9l.6-2.6C98.8.3 97.4 0 96 0c-2.6 0-4.6 1.4-4.6 3.9 0 4.3 6.1 3.2 6.1 5Zm9.8 3.6c1.1.1 2.1-.1 3.1-.4V9.3c-.9.3-1.8.5-2.7.4-1.8.2-3.4-1.2-3.6-3v-.5c-.2-1.8 1.1-3.4 2.9-3.5h.6c.9 0 1.8.1 2.7.4l.3-2.7c-1-.3-2-.4-3-.3-3.4-.3-6.5 2.2-6.8 5.6-.3 3.4 2.2 6.5 5.6 6.8H107.3ZM115 8h7v4h3V0h-3v5h-7V0h-3v12h3V8Zm18.5 4.5c3.9 0 7.1-2.1 7.1-6.3 0-4.1-3-6.2-7.1-6.2s-7.2 2.3-7.2 6.2c.1 4.2 3.3 6.3 7.2 6.3Zm0-10c2.3 0 4 1.2 4 3.6 0 2.6-1.7 3.8-4.1 3.8-2.4 0-4-1.2-4-3.7s1.8-3.7 4.1-3.7Zm14.8 10c3.9 0 7.1-2.1 7.1-6.3 0-4.1-3-6.2-7.1-6.2s-7.1 2.3-7.1 6.2c0 4.2 3.2 6.3 7.1 6.3Zm0-10c2.3 0 4 1.2 4 3.6 0 2.6-1.7 3.8-4.1 3.8-2.4 0-4-1.2-4-3.7s1.8-3.7 4.1-3.7ZM169 9h-10V0h-3v12h13V9ZM4 12h3V3h4V0H0v3h4v9ZM4 15h220v3H4v-3Z"/><path d="M27 20h20.895c6.717 0 10.058 4.286 10.058 9.215 0 5.906-4.826 9.518-10.058 9.518H33.75v8.27H27V20Zm6.751 6.076v6.919h13.165c3.308 0 4.05-1.89 4.05-3.612 0-1.417-.742-3.307-4.05-3.307H33.75ZM72.569 41.839h-9.89l-1.857 5.164h-7.19L64.467 20h6.954l10.16 27.003h-7.325l-1.687-5.164Zm-7.933-5.502h6.177l-2.903-9.013-3.274 9.012ZM82.694 20h12.793c6.043 0 9.047 4.286 9.047 9.215a9.309 9.309 0 0 1-4.726 8.404l4.726 9.384h-7.595l-3.747-8.27h-3.747v8.27h-6.75V20Zm6.751 6.076v6.919h4.388a3.47 3.47 0 0 0 3.713-3.612c0-1.417-1.08-3.307-3.713-3.307h-4.388ZM106.086 28.236c0-5.705 4.557-8.776 10.43-8.776 3.409 0 7.156.877 9.283 2.093l-1.283 5.738a17.523 17.523 0 0 0-8.236-2.06c-2.093 0-3.511.81-3.511 2.228 0 4.389 13.84 1.925 13.84 11.004 0 4.827-3.443 9.08-10.633 9.08-3.072 0-6.549-.405-9.35-1.721l.27-6.177a21.083 21.083 0 0 0 9.283 2.126c2.97 0 3.713-1.046 3.713-2.295 0-4.05-13.806-1.688-13.806-11.24ZM143.249 19.46c9.283 0 15.966 4.793 15.966 13.906 0 9.485-7.223 14.177-16 14.177-8.843 0-16.067-4.76-16.067-14.143 0-8.843 6.582-13.94 16.101-13.94Zm-.101 22.412c5.299 0 9.114-2.7 9.114-8.64 0-5.401-3.815-8.102-9.08-8.102-5.266 0-9.081 2.633-9.081 8.304 0 5.704 3.815 8.438 9.047 8.438ZM169.138 28.067h-1.687v18.936h-6.752V20h9.486l17.856 17.045h1.688V20h6.751v27.003h-8.168l-19.174-18.936ZM198.943 28.236c0-5.705 5.401-8.776 12.625-8.776 4.59 0 9.35.877 11.476 2.093l-1.282 5.738c-2.262-1.35-6.819-2.06-10.431-2.06-3.881 0-5.704.81-5.704 2.228 0 4.659 18.228 1.047 18.228 11.004 0 4.827-4.119 9.08-12.827 9.08-3.916 0-8.743-.405-11.545-1.721l.27-6.177c2.802 1.35 6.886 2.126 11.477 2.126 4.422 0 5.907-1.046 5.907-2.295 0-4.354-18.194-.878-18.194-11.24Z"/></svg>