<svg xmlns="http://www.w3.org/2000/svg" viewBox="30 15 112 27" role="img" aria-label="Galvanize company logo"><g><path d="M36.002 32.657c1.455 0 2.404-.61 2.562-3.45h-5.15c.166 2.83 1.159 3.45 2.588 3.45M35.386 27.858a1.08 1.08 0 0 0-1.525-1.527c-.379.382-.416.975-.11 1.397l-.234.474.474-.234c.421.307 1.015.27 1.395-.11M32.815 24.856a.758.758 0 1 0-.093 1.15l.332.167-.163-.336a.758.758 0 0 0-.076-.981M34.191 23.231a.488.488 0 0 0 0-.686.487.487 0 0 0-.684 0 .487.487 0 0 0-.05.627l-.105.211.213-.103c.19.138.455.122.626-.049"/><path d="M39.488 21.446v1.644a4.946 4.946 0 0 0-1.046-1.024l-1.21 1.211c1.917.634 2.228 2.83 2.228 5.032 0 2.607-.427 5.217-3.458 5.217-3.03 0-3.485-2.61-3.485-5.217 0-.106.003-.21.004-.317l-1.973 1.977c.152 1.632.588 3.107 1.629 4.152.737.738 1.955 1.248 3.372 1.248 1.501 0 2.777-.368 3.91-1.815v2.184c0 2.383-1.133 4.281-3.825 4.281-1.615 0-2.322-.48-3.343-1.388l-1.33 1.303c1.471 1.332 2.633 1.872 4.73 1.872 3.655 0 5.807-2.524 5.807-5.983V21.446h-2.01M54.417 29.022h-3.883c-2.084 0-3.098.846-3.098 2.45 0 1.608.985 2.368 3.18 2.368 1.184 0 2.225-.084 3.098-.93.479-.45.703-1.24.703-2.394v-1.494Zm0 6.396v-1.325c-1.126 1.128-2.14 1.494-3.997 1.494-1.914 0-3.04-.366-3.913-1.268-.675-.676-1.04-1.719-1.04-2.818 0-2.422 1.688-4 4.784-4h4.166v-1.325c0-2.029-1.013-3.043-3.547-3.043-1.773 0-2.673.422-3.49 1.578L46 23.443c1.24-1.606 2.647-2.056 4.899-2.056 3.715 0 5.545 1.604 5.545 4.62v9.411h-2.027ZM64.573 35.418c-2.42 0-3.518-1.578-3.518-3.69V15.355h2.027v16.287c0 1.352.45 2.029 1.858 2.029h1.097v1.746h-1.464M74.514 35.418h-1.8l-5.067-13.863h2.195l3.772 11.131 3.8-11.131h2.197l-5.097 13.863M90.318 29.022h-3.885c-2.083 0-3.096.846-3.096 2.45 0 1.608.985 2.368 3.18 2.368 1.182 0 2.225-.084 3.097-.93.479-.45.704-1.24.704-2.394v-1.494Zm0 6.396v-1.325c-1.127 1.128-2.14 1.494-3.998 1.494-1.914 0-3.04-.366-3.912-1.268-.676-.676-1.042-1.719-1.042-2.818 0-2.422 1.689-4 4.786-4h4.166v-1.325c0-2.029-1.013-3.043-3.548-3.043-1.773 0-2.673.422-3.49 1.578l-1.38-1.268c1.24-1.606 2.647-2.056 4.899-2.056 3.716 0 5.546 1.604 5.546 4.62v9.411h-2.027ZM105.548 35.418V26.88c0-2.45-1.324-3.691-3.407-3.691-2.081 0-3.433 1.267-3.433 3.691v8.538h-2.027V21.555h2.027v1.522c.985-1.127 2.336-1.69 3.883-1.69 1.493 0 2.702.45 3.548 1.295.984.959 1.436 2.254 1.436 3.861v8.875h-2.027M111.986 21.555h2.027v13.863h-2.027zM117.981 35.418v-1.746l7.712-10.314h-7.29v-1.803h9.627v1.719l-7.742 10.34h7.742v1.804h-10.049M139.53 25.19c-.535-1.268-1.774-2.085-3.238-2.085s-2.7.817-3.237 2.085c-.309.761-.366 1.183-.421 2.31h7.318c-.057-1.127-.112-1.549-.421-2.31Zm-6.896 3.832c0 3.042 1.436 4.79 4.081 4.79 1.604 0 2.534-.48 3.631-1.578l1.379 1.212c-1.406 1.408-2.703 2.14-5.066 2.14-3.659 0-6.053-2.197-6.053-7.098 0-4.48 2.168-7.101 5.686-7.101 3.575 0 5.687 2.592 5.687 6.705v.93h-9.345Z"/></g></svg>