<svg xmlns="http://www.w3.org/2000/svg" xmlns:xlink="http://www.w3.org/1999/xlink" viewBox="0 0 960 235.92" role="img" aria-label="Itemize company logo"><defs><path id="a" d="M0 0h960v235.92H0z"/></defs><clipPath id="b"><use xlink:href="#a" overflow="visible"/></clipPath><path d="M555.883 148.162c.585-.588 1.21-1.142 1.747-1.77 3.57-4.177 7.597-7.73 12.627-10.134 2.785-1.332 5.678-2.318 8.655-2.718 2.996-.403 6.087-.155 9.134-.094 1.368.028 2.768.157 4.088.492 2.368.603 4.763 1.215 7.015 2.144 4.96 2.05 8.83 5.492 11.83 9.93.19.293.42.563.63.85.34.48.67.965 1.01 1.448.48-.404.97-.796 1.43-1.215 2.57-2.322 4.97-4.88 7.75-6.915 3.07-2.247 6.52-3.92 10.21-5.09 4.99-1.585 10.1-2.056 15.29-1.88 7.35.248 14.17 2.228 19.94 6.94 3.87 3.16 6.69 7.182 8.32 11.933.92 2.684 1.7 5.426 2.34 8.188.38 1.64.52 3.37.53 5.05.03 22.48.02 44.96.02 67.44 0 1.73 0 1.73-1.67 1.73h-24.95c-1.61 0-1.7-.09-1.7-1.7 0-18.56.06-37.11-.05-55.67-.03-4.61-1.07-9.07-4.01-12.88-2-2.58-4.64-4.08-7.75-4.74-4.82-1.01-9.51-.7-13.79 2.04-3.42 2.19-5.23 5.46-6.37 9.28-.94 3.16-.91 6.35-.91 9.57 0 17.36-.01 34.72 0 52.08 0 2.05-.44 2.08-1.99 2.07-8.28-.03-16.56-.01-24.84-.02-1.68 0-1.74-.05-1.74-1.78 0-18.72.11-37.44-.07-56.15-.05-5.05-1.36-9.97-5.23-13.68-2.5-2.39-5.6-3.48-9.04-3.75-2.61-.2-5.15-.04-7.66.72-2.94.89-5.29 2.54-7.12 4.98-2.48 3.31-3.56 7.12-3.75 11.16-.2 4.14-.28 42.11-.24 56.95 0 1.18-.32 1.61-1.52 1.6-8.44-.03-16.88-.03-25.32 0-1.16.01-1.52-.43-1.52-1.55.01-32.16.01-64.31.01-96.47 0-1.39 0-1.36 1.76-1.35 4.52.03 20.76.01 24.36.01.32 0 .67.08.95-.02 1.16-.44 1.25.21 1.25 1.1-.02 3.72-.01 7.44-.01 11.16v.59c.09.08.18.15.28.22m326.36 28.71h28.36c-.21-1.24-.3-2.4-.6-3.51-1-3.68-2.34-7.25-4.76-10.24-2.1-2.59-4.61-4.75-7.92-5.71-1.83-.53-3.72-1.31-5.55-1.26-2.83.08-5.67-.13-8.52.92-5.67 2.1-9.41 5.96-11.91 11.3a31.837 31.837 0 0 0-3.03 13.28c-.03 2.97-.07 5.94.03 8.91.05 1.27.33 2.58.73 3.79.88 2.69 1.6 5.5 2.94 7.96 1.79 3.31 4.33 6.09 7.72 7.95 3.333 1.83 6.84 2.86 10.676 3.14 3.52.25 6.99.11 10.39-.61 3.65-.77 7.04-2.34 10.09-4.51 2.1-1.5 4.1-3.12 6.25-4.76 1.69 1.44 3.5 2.96 5.27 4.51 3.39 2.97 6.77 5.96 10.13 8.97.46.41.85.9.23 1.61-3.32 3.81-6.94 7.29-11.24 9.95-2.56 1.59-5.26 3.04-8.06 4.12-3.174 1.23-6.51 2.07-9.83 2.89-1.65.41-3.41.5-5.12.53-3.8.08-7.6-.03-11.4.05-2.51.05-4.87-.61-7.28-1.07-4.25-.81-8.288-2.29-12.108-4.26-2.63-1.36-5.14-2.99-7.57-4.69-1.74-1.21-3.43-2.58-4.85-4.15a80.332 80.332 0 0 1-6.15-7.62c-3.06-4.34-5.1-9.22-6.42-14.34-.75-2.9-1.17-5.92-1.52-8.91-.32-2.78-.54-5.61-.46-8.41.08-2.7.47-5.42.98-8.07.53-2.75 1.28-5.47 2.12-8.14.64-2.03 1.4-4.065 2.42-5.93 1.6-2.94 3.27-5.9 5.28-8.564 1.9-2.502 4.16-4.76 6.47-6.9 1.95-1.817 4.11-3.44 6.34-4.897 1.88-1.23 3.94-2.214 6.01-3.1 2.17-.93 4.4-1.81 6.69-2.36 2.69-.64 5.47-.99 8.23-1.28 2.21-.24 4.45-.32 6.67-.25 4.21.13 8.36.67 12.45 1.8 4.308 1.18 8.36 2.88 12.03 5.38 2.33 1.59 4.64 3.3 6.64 5.28 3.23 3.2 5.96 6.83 8.08 10.89 1.81 3.45 3.337 7.01 4.38 10.77 1 3.62 1.72 7.28 2.2 11.03.56 4.34.3 8.66.4 12.99.02.86-.1 1.732-.26 2.58-.05.255-.41.543-.69.644-.323.116-.71.046-1.07.046H884c-1.81 0-1.813 0-1.813-1.74V176.9m-392.1 26.57c1.884 1.646 3.74 3.245 5.57 4.864 3.264 2.877 6.52 5.762 9.774 8.65.52.46.98.92.32 1.67-3.27 3.736-6.85 7.11-11.03 9.83a48.201 48.201 0 0 1-12.99 5.925c-2.02.58-4.14.78-6.18 1.3-3.99 1-8.03.18-12.03.45-.51.03-1.04-.03-1.56.01-3.9.27-7.63-.65-11.36-1.6a49.138 49.138 0 0 1-15.88-7.26c-3.93-2.72-7.44-5.93-10.24-9.81-2-2.77-3.88-5.66-5.48-8.67-1.23-2.31-2.05-4.87-2.85-7.38-.7-2.19-1.21-4.44-1.63-6.7-.33-1.78-.47-3.6-.54-5.41-.09-2.24 0-4.48-.02-6.72-.05-4.59.81-9.07 2.01-13.46.77-2.8 2.05-5.47 3.2-8.16 2.52-5.86 6.27-10.88 10.91-15.21 3.35-3.14 7.12-5.69 11.26-7.75 3.8-1.89 7.78-3.09 11.86-4.05 1.52-.36 3.11-.44 4.68-.56 1.74-.14 3.49-.24 5.23-.24 4.87-.03 9.65.51 14.36 1.83 4.29 1.21 8.38 2.85 12.02 5.38 2.57 1.78 5.08 3.72 7.27 5.93 3.27 3.29 5.98 7.05 7.93 11.3 1.23 2.68 2.52 5.37 3.42 8.17.93 2.88 1.44 5.9 2.11 8.87 1.23 5.48.96 11.05.95 16.6 0 .82-.07 1.66-.27 2.45-.09.35-.57.64-.94.85-.21.12-.55.02-.83.02H456.8c-1.613 0-1.57-.01-1.56-1.64.02-4.8.01-9.6 0-14.4 0-.27-.206-.59-.117-.8.15-.35.41-.69.713-.91.185-.13.54-.03.82-.03h25.557c1.46 0 1.413-.1 1.14-1.51-.51-2.65-1.217-5.23-2.367-7.69-1.34-2.86-3.103-5.43-5.56-7.4-2.35-1.89-5.024-3.29-8.06-3.77-1.25-.2-2.53-.24-3.8-.25-1.98-.03-3.93-.13-5.92.41-2.74.74-5.2 1.92-7.344 3.7-4.49 3.72-6.76 8.8-8.17 14.28-.55 2.15-.57 4.44-.8 6.67-.11 1.06-.23 2.13-.24 3.19-.04 4.87.483 9.71 2.23 14.25 2.264 5.89 6.12 10.48 12.16 12.88 2.62 1.04 5.324 1.59 8.19 1.78 4.31.27 8.49-.04 12.59-1.3 3.42-1.05 6.49-2.84 9.326-5.02 1.5-1.15 2.937-2.38 4.52-3.66m293.37 7.75h49.174c1.56 0 1.56 0 1.56 1.59 0 6.76-.02 13.52.03 20.28.01 1.09-.27 1.44-1.406 1.43-27.713-.03-55.43-.03-83.144-.03-1.52 0-1.63-.115-1.63-1.65 0-5.88-.03-11.76.03-17.636.01-.676.32-1.49.77-1.99 3.43-3.846 48.13-53.138 49.89-55.12-.6-.066-1.067-.158-1.53-.158-15.193-.01-30.39-.01-45.59-.01-1.9 0-1.9 0-1.9-1.88 0-6.4.01-12.79 0-19.19 0-1.83-.01-1.83 1.84-1.72.28.01.56 0 .84 0h79.67c.7 0 1.66-.19 2.02.18.354.36.11 1.32.11 2.02.004 5.08-.12 10.17.06 15.24.077 2.043-.714 3.42-1.99 4.78-3.014 3.21-46.28 50.83-48.5 53.31-.09.1-.135.24-.295.542M406.56 135.1v12.963c0 3.32-.04 6.64.025 9.96.02 1.087-.352 1.34-1.38 1.336-6.84-.04-13.68 0-20.52-.05-1.094-.01-1.43.28-1.43 1.41.04 13.56 0 27.12.056 40.67.01 1.83.14 3.7 1.01 5.4 1.04 2.01 2.68 3.12 4.88 3.7 3.85 1.02 7.5.03 11.16-.82 1.61-.38 3.12-1.19 4.64-1.86.93-.42 1.32-.25 1.33.78.01 6.84.02 13.68-.04 20.52-.01.55-.49 1.35-.98 1.6-3.11 1.6-6.28 3.03-9.75 3.81-2.7.6-5.35 1.19-8.14 1.16-1.45-.01-2.91.49-4.35.4-2.7-.17-5.4-.53-8.09-.94-3.43-.52-6.63-1.72-9.54-3.61-4.39-2.84-7.13-6.99-8.68-11.86-.82-2.59-1.39-5.35-1.49-8.06-.27-7.34-.26-14.69-.29-22.03-.04-9.52-.01-19.04-.01-28.56 0-1.71 0-1.71-1.72-1.71-2.96 0-5.92-.02-8.88.01-.99.01-1.2-.33-1.19-1.33.06-7.32.07-14.64-.02-21.96-.01-1.07.58-1.13 1.15-1.13 3.15.01 6.29.09 9.43.17 1.14.03 1.26-.66 1.26-1.56-.02-7.44-.01-14.88-.01-22.32 0-1.56 0-1.57 1.59-1.57 8.4 0 16.8.02 25.2-.03 1.19-.01 1.58.27 1.57 1.52-.06 7.44-.03 14.88-.03 22.31 0 1.513.12 1.63 1.65 1.63h21.63zm295.92 29.04h-8.02c-1.446-.006-1.58-.137-1.58-1.58v-26.03c0-1.47.157-1.6 1.598-1.44.317.034.64.01.96.01 10.356 0 20.71.003 31.07-.005 1.114 0 2.23-.1 3.345-.096.72 0 1.34.2 1.2 1.15-.034.24-.004.48-.004.72 0 31.87-.01 63.74.02 95.61 0 1.6-.12 1.99-1.95 1.99-8.24-.01-16.48-.01-24.72-.01-1.78 0-1.92-.14-1.92-1.88v-68.44zM290.4 135.12h35.758c2.168 0 2.163-.003 2.162 2.117v94.66c0 2.582.007 2.582-2.585 2.582H301.74c-1.74-.01-1.74-.01-1.74-1.7v-67.07c0-1.56-.002-1.56-1.593-1.56-2.32 0-4.64-.02-6.96.01-.767.01-1.06-.24-1.06-1.04.02-9.28.013-18.55.013-28.02m410.4-26.82c.183-8.39 7.066-15.78 16.015-15.63 8.904.14 15.707 6.79 15.757 15.78.05 9.12-6.78 16.02-15.97 15.98-8.93-.04-15.652-6.77-15.802-16.14m-402.48.17c.172-8.92 6.856-15.81 16.01-15.8 8.536.01 15.643 6.81 15.626 15.75-.018 9.42-6.913 16.01-15.96 15.99-8.66-.01-15.632-6.75-15.676-15.96" clip-path="url(#b)"/><defs><path id="c" d="M0 0h960v235.92H0z"/></defs><clipPath id="d"><use xlink:href="#c" overflow="visible"/></clipPath><path d="M182.218 125.433H60.103a9.5 9.5 0 0 1 0-19h122.115c5.247 0 9.5 4.253 9.5 9.5s-4.253 9.5-9.5 9.5" clip-path="url(#d)"/><path d="M182.218 81.433H60.103a9.5 9.5 0 0 1 0-19h122.115c5.247 0 9.5 4.253 9.5 9.5s-4.253 9.5-9.5 9.5" clip-path="url(#d)"/><path d="M182.218 170.433H60.103a9.5 9.5 0 0 1 0-19h122.115c5.247 0 9.5 4.253 9.5 9.5s-4.253 9.5-9.5 9.5" clip-path="url(#d)"/><path d="M139.847 234.355H37.68c-20.372 0-37.583-17.365-37.583-37.92V37.795C.097 17.017 16.957.115 37.68.115h165.61c20.508 0 37.19 16.902 37.19 37.68v196.01h-24V37.795c0-7.67-5.793-13.68-13.19-13.68H37.68c-7.617 0-13.583 6.01-13.583 13.68v158.64c0 7.156 6.6 13.92 13.583 13.92h102.167v24z" clip-path="url(#d)"/><defs><path id="e" d="M0 0h960v235.92H0z"/></defs><clipPath id="f"><use xlink:href="#e" overflow="visible"/></clipPath><path d="M944.143 152.708c-5.553 0-10.07-4.518-10.07-10.07 0-5.553 4.518-10.07 10.07-10.07 5.554 0 10.07 4.518 10.07 10.07 0 5.552-4.517 10.07-10.07 10.07m0-18.14c-4.45 0-8.07 3.62-8.07 8.068 0 4.45 3.62 8.07 8.07 8.07s8.07-3.62 8.07-8.07c0-4.448-3.62-8.07-8.07-8.07" clip-path="url(#f)"/><path d="M943.584 141.812c.57 0 .98-.105 1.225-.318.25-.213.37-.562.37-1.048 0-.48-.13-.825-.38-1.032-.25-.208-.66-.312-1.23-.312h-1.15v2.71h1.14m-1.15 1.882v4h-2.72v-10.566h4.16c1.39 0 2.41.232 3.05.7.65.467.98 1.206.98 2.215 0 .7-.17 1.27-.51 1.72-.34.448-.85.78-1.52.99.37.086.7.278.99.58.3.298.59.75.9 1.36l1.48 3h-2.9l-1.29-2.626c-.26-.527-.53-.89-.8-1.083-.26-.192-.61-.29-1.06-.29h-.77" clip-path="url(#f)"/></svg>