<svg xmlns="http://www.w3.org/2000/svg" viewBox="0 0 751.701 102.686" role="img" aria-label="Thrive DX company logo">
	<g>
		<path d="M627.023 49.046h6.137a2.082 2.082 0 0 0 2.38-2.38v-7.14a2.082 2.082 0 0 0-2.38-2.38h-6.137Zm1.632-1.5v-8.9h4.318c.68 0 .935.255.935.935v7.038c0 .68-.255.935-.935.935Zm10.03-8.959h1.717v-1.734h-1.717Zm.085 10.459h1.547v-9.18h-1.547Zm5.661 2.72h4.131a1.991 1.991 0 0 0 2.278-2.278v-9.622h-1.547v1.292a3.861 3.861 0 0 0-3.23-1.36c-1.955 0-2.686.731-2.686 2.329v4.352c0 1.615.731 2.346 2.686 2.346a3.909 3.909 0 0 0 3.23-1.36v2.074c0 .663-.255.918-.918.918h-3.944Zm1.8-4.352c-1.037 0-1.309-.255-1.309-.918v-4.369c0-.663.272-.918 1.309-.918a4.661 4.661 0 0 1 3.06.918v4.369a4.758 4.758 0 0 1-3.058.918Zm7.786-8.823h1.717v-1.734h-1.715Zm.087 10.455h1.547v-9.18h-1.547Zm7.412 0h1.462v-1.343h-1.258c-.663 0-.918-.272-.918-.918v-5.61h2.176v-1.309h-2.193v-2.21h-1.53v2.21h-1.377v1.309h1.36v5.593a1.991 1.991 0 0 0 2.278 2.278Zm6.069.068a3.484 3.484 0 0 0 3.145-1.377v1.309h1.547v-6.9a1.991 1.991 0 0 0-2.278-2.28h-2.431a1.991 1.991 0 0 0-2.275 2.28v.3h1.547v-.34c0-.663.255-.918.918-.918h2.057c.663 0 .918.255.918.918V43.5c-1.377.051-2.6.17-3.417.255-1.53.17-2.329.748-2.329 2.669-.003 1.908.728 2.69 2.598 2.69Zm.17-1.343c-.969 0-1.224-.323-1.224-1.428 0-1.088.272-1.292.986-1.394l3.213-.425v2.261a4.6 4.6 0 0 1-2.975.986Zm7.684 1.275h1.547v-12.41h-1.547Zm-45.934 20h1.632V58.625h3.519v-1.479h-8.653v1.479h3.5Zm6.579 0h1.547v-6.8a4.842 4.842 0 0 1 2.686-.9h.816v-1.48h-.68a3.7 3.7 0 0 0-2.822 1.36v-1.36h-1.547Zm9.418.068a3.484 3.484 0 0 0 3.145-1.377v1.309h1.546v-6.9a1.991 1.991 0 0 0-2.278-2.278h-2.43a1.991 1.991 0 0 0-2.278 2.278v.3h1.547v-.34c0-.663.255-.918.918-.918h2.057c.663 0 .918.255.918.918V63.5c-1.377.051-2.6.17-3.417.255-1.53.17-2.329.748-2.329 2.669 0 1.908.731 2.69 2.601 2.69Zm.17-1.343c-.969 0-1.224-.323-1.224-1.428 0-1.088.272-1.292.986-1.394l3.213-.425v2.261a4.6 4.6 0 0 1-2.975.986Zm7.633 1.275h1.547V62.11a4.557 4.557 0 0 1 2.958-.918c.935 0 1.173.255 1.173.935v6.919h1.564v-6.97c0-1.564-.731-2.3-2.584-2.3a3.774 3.774 0 0 0-3.111 1.36v-1.27h-1.547Zm12.188 0h2.584c1.547 0 2.278-.731 2.278-2.737 0-1.683-.612-2.193-1.989-2.431l-2.618-.425c-.629-.1-.867-.255-.867-1.088 0-.918.255-1.19.918-1.19h1.9c.663 0 .918.272.918 1.037v.357h1.513v-.306c0-1.666-.731-2.4-2.278-2.4h-2.239c-1.547 0-2.278.731-2.278 2.6 0 1.547.612 2.057 1.989 2.3l2.618.425c.629.1.867.255.867 1.224 0 1.054-.255 1.326-.918 1.326h-2.244c-.646 0-.918-.272-.918-1.156v-.391h-1.513v.355c0 1.769.731 2.5 2.277 2.5Zm8.245 0h1.547v-7.871h2.448v-1.309h-2.464v-1.037c0-.663.272-.918.918-.918h1.377v-1.275h-1.547a1.991 1.991 0 0 0-2.278 2.278v.952h-1.513v1.309h1.513Zm8.126 0h2.789a1.991 1.991 0 0 0 2.278-2.278v-4.622a1.991 1.991 0 0 0-2.278-2.28h-2.788a1.991 1.991 0 0 0-2.278 2.28v4.624a1.991 1.991 0 0 0 2.278 2.276Zm.187-1.377c-.646 0-.918-.272-.918-.918v-4.59c0-.646.272-.918.918-.918h2.4c.663 0 .918.272.918.918v4.585c0 .646-.255.918-.918.918Zm7.872 1.377h1.547v-6.8a4.842 4.842 0 0 1 2.686-.9h.816v-1.48h-.679a3.7 3.7 0 0 0-2.822 1.36v-1.36h-1.548Zm17.306-9.282a3.952 3.952 0 0 0-3.043 1.428c-.238-.969-.986-1.428-2.346-1.428a3.664 3.664 0 0 0-2.941 1.36v-1.258h-1.547v9.18h1.547v-6.953a4.4 4.4 0 0 1 2.788-.918c.782 0 1.037.255 1.037.935v6.936h1.564v-6.97a4.582 4.582 0 0 1 2.771-.9c.8 0 1.054.255 1.054.935v6.935h1.547v-6.987c0-1.564-.731-2.295-2.431-2.295Zm7.769 9.35a3.484 3.484 0 0 0 3.145-1.377v1.309h1.55v-6.9a1.991 1.991 0 0 0-2.278-2.278h-2.434a1.991 1.991 0 0 0-2.278 2.278v.3h1.547v-.34c0-.663.255-.918.918-.918h2.057c.663 0 .918.255.918.918V63.5c-1.377.051-2.6.17-3.417.255-1.53.17-2.329.748-2.329 2.669-.004 1.908.731 2.69 2.596 2.69Zm.17-1.343c-.969 0-1.224-.323-1.224-1.428 0-1.088.272-1.292.986-1.394l3.213-.425v2.261a4.6 4.6 0 0 1-2.975.986Zm10.302 1.275h1.462v-1.343h-1.258c-.663 0-.918-.272-.918-.918v-5.61h2.176v-1.309h-2.193v-2.21h-1.53v2.21h-1.377v1.309h1.361v5.593a1.991 1.991 0 0 0 2.277 2.278Zm3.961-10.455h1.717v-1.734h-1.717Zm.085 10.455h1.547v-9.18h-1.547Zm6.885 0h2.792a1.991 1.991 0 0 0 2.278-2.278v-4.622a1.991 1.991 0 0 0-2.278-2.28h-2.788a1.991 1.991 0 0 0-2.282 2.28v4.624a1.991 1.991 0 0 0 2.278 2.276Zm.187-1.377c-.646 0-.918-.272-.918-.918v-4.59c0-.646.272-.918.918-.918h2.4c.663 0 .918.272.918.918v4.585c0 .646-.255.918-.918.918Zm7.871 1.377h1.547V62.11a4.557 4.557 0 0 1 2.958-.918c.935 0 1.173.255 1.173.935v6.919h1.564v-6.97c0-1.564-.731-2.3-2.584-2.3a3.774 3.774 0 0 0-3.111 1.36v-1.27h-1.547Zm-114.954 20h1.632V78.625h3.519v-1.479h-8.653v1.479h3.5Zm6.579 0h1.547v-6.8a4.842 4.842 0 0 1 2.686-.9h.816v-1.48h-.68a3.7 3.7 0 0 0-2.822 1.36v-1.36h-1.547Zm9.418.068a3.484 3.484 0 0 0 3.145-1.377v1.309h1.546v-6.9a1.991 1.991 0 0 0-2.278-2.278h-2.43a1.991 1.991 0 0 0-2.278 2.278v.3h1.547v-.34c0-.663.255-.918.918-.918h2.057c.663 0 .918.255.918.918V83.5c-1.377.051-2.6.17-3.417.255-1.53.17-2.329.748-2.329 2.669 0 1.908.731 2.69 2.601 2.69Zm.17-1.343c-.969 0-1.224-.323-1.224-1.428 0-1.088.272-1.292.986-1.394l3.213-.425v2.261a4.6 4.6 0 0 1-2.975.986Zm7.616-9.18h1.717v-1.734h-1.712Zm.085 10.455h1.547v-9.18h-1.547Zm4.811 0h1.547V82.11a4.557 4.557 0 0 1 2.958-.918c.935 0 1.173.255 1.173.935v6.919h1.564v-6.97c0-1.564-.731-2.295-2.584-2.295a3.774 3.774 0 0 0-3.111 1.36v-1.275h-1.547Zm10.319-10.455h1.717v-1.734h-1.717Zm.09 10.455h1.547v-9.18h-1.547Zm4.811 0h1.547V82.11a4.557 4.557 0 0 1 2.958-.918c.935 0 1.173.255 1.173.935v6.919h1.564v-6.97c0-1.564-.731-2.295-2.584-2.295a3.774 3.774 0 0 0-3.111 1.36v-1.275h-1.552Zm11.186 2.72h4.131a1.991 1.991 0 0 0 2.272-2.278v-9.622h-1.546v1.292a3.861 3.861 0 0 0-3.23-1.36c-1.955 0-2.686.731-2.686 2.329v4.352c0 1.615.731 2.346 2.686 2.346a3.909 3.909 0 0 0 3.23-1.36v2.074c0 .663-.255.918-.918.918h-3.944Zm1.8-4.352c-1.037 0-1.309-.255-1.309-.918v-4.369c0-.663.272-.918 1.309-.918a4.661 4.661 0 0 1 3.06.918v4.369a4.758 4.758 0 0 1-3.063.918Z" />
		<path d="M565.791 20.02v.519h-2.334v5.922h-.639v-5.922h-2.328v-.523Z" />
		<path d="m568.432 20.02 2.225 5.65 2.31-5.65h.939v6.445h-.638v-5.57h-.019l-2.291 5.57h-.6l-2.206-5.57h-.019v5.57h-.638V20.02Z" />
		<path d="M80.856.363v17.675H50.991v82.143H29.999V18.038h-30V.363Z" />
		<path d="M144.536 26.776a21.677 21.677 0 0 1 9.137 7.252 19.346 19.346 0 0 1 3.708 8.508 105.194 105.194 0 0 1 .675 14.266v43.379h-19.707V55.232a19.913 19.913 0 0 0-2.016-9.626q-2.619-5.151-9.949-5.151-7.6 0-11.529 5.119t-3.932 14.609v40h-19.3V0h19.3v35.915q4.181-6.433 9.675-8.973a27.249 27.249 0 0 1 11.564-2.54 31.254 31.254 0 0 1 12.374 2.374Z" />
		<path d="M210.03 24.64c.247.023.8.057 1.659.1v19.774q-1.828-.2-3.25-.272a53.733 53.733 0 0 0-2.3-.067q-11.648 0-15.643 7.584-2.234 4.266-2.234 13.137v35.282h-19.439V26.367h18.419v12.866q4.47-7.381 7.788-10.09 5.417-4.537 14.085-4.537.542 0 .915.034Z" />
		<path d="M235.012 18.041h-12.556V7.247a7.015 7.015 0 0 1 7.016-7.016h12.555v10.795a7.015 7.015 0 0 1-7.015 7.015Z" />
		<path d="M222.457 26.367h19.571v73.813h-19.571z" />
		<path d="M305.634 26.367h20.722l-26.654 73.813h-20.35l-26.47-73.813h21.67l15.372 54.445Z" />
		<path d="M381.516 27.862a30.029 30.029 0 0 1 12.755 10.92 36.276 36.276 0 0 1 5.881 15.26 94.361 94.361 0 0 1 .636 14.65h-53.757q.449 11.106 7.718 15.575a19.6 19.6 0 0 0 10.642 2.776q6.595 0 10.716-3.386a16.246 16.246 0 0 0 3.972-5.079h19.7q-.78 6.569-7.155 13.34-9.918 10.768-27.77 10.767a40.237 40.237 0 0 1-26-9.082q-11.264-9.082-11.264-29.552 0-19.179 10.168-29.413t26.4-10.236a42.023 42.023 0 0 1 17.358 3.46Zm-28.873 16.672q-4.091 4.217-5.141 11.425h33.25q-.527-7.684-5.142-11.663a16.914 16.914 0 0 0-11.447-3.979q-7.432 0-11.52 4.218Z" />
		<path d="M411.656 26.652h34.223c23.826 0 40.1 14.695 40.1 36.737s-16.27 36.736-40.1 36.736h-34.223Zm33.593 61.928c16.374 0 26.975-9.972 26.975-25.191s-10.6-25.191-26.975-25.191H425.3V88.58Z" />
		<path d="m553.05 26.93 9.81 9.81-63.791 63.792-9.81-9.81z" />
		<path d="m563.005 90.371-9.81 9.81-63.792-63.791 9.81-9.81z" />
		<path d="M594.756 36.51h1.355v53.501h-1.355z" />
	</g>
</svg>
