<?xml version="1.0" standalone="no"?>
<!DOCTYPE svg PUBLIC "-//W3C//DTD SVG 20010904//EN"
 "http://www.w3.org/TR/2001/REC-SVG-20010904/DTD/svg10.dtd">
<svg version="1.0" xmlns="http://www.w3.org/2000/svg"
 width="700.000000pt" height="700.000000pt" viewBox="0 0 700.000000 700.000000"
 preserveAspectRatio="xMidYMid meet">
<metadata>
Created by potrace 1.14, written by Peter Selinger 2001-2017
</metadata>
<g transform="translate(0.000000,700.000000) scale(0.100000,-0.100000)"
fill="#000000" stroke="none">
<path d="M0 3500 l0 -3500 3500 0 3500 0 0 3500 0 3500 -3500 0 -3500 0 0
-3500z m3880 2121 c243 -43 431 -117 534 -212 75 -68 98 -115 105 -209 l6 -74
595 -228 c406 -155 601 -234 613 -249 16 -20 17 -93 17 -1225 l0 -1203 -22
-26 c-18 -21 -243 -109 -1098 -431 -591 -223 -1088 -408 -1105 -411 -44 -7
-2220 826 -2253 863 l-22 25 2 1209 c3 1095 5 1211 19 1225 9 9 288 119 620
244 l604 228 6 65 c19 224 290 368 809 432 19 2 130 3 245 1 155 -2 240 -9
325 -24z"/>
<path d="M3295 5469 c-176 -17 -344 -59 -463 -115 -83 -40 -162 -109 -162
-143 0 -172 530 -322 1000 -281 298 25 531 96 633 193 68 63 60 112 -28 179
-173 131 -597 203 -980 167z"/>
<path d="M2046 4795 c-236 -89 -436 -166 -444 -171 -10 -7 261 -115 947 -378
l962 -368 187 70 c103 39 457 172 787 297 330 124 673 254 763 287 89 34 162
64 162 67 0 4 -790 309 -877 339 -10 3 -13 -35 -13 -170 0 -167 -1 -176 -26
-226 -50 -101 -172 -185 -354 -246 -598 -199 -1458 -68 -1614 246 -25 50 -26
58 -26 235 0 140 -3 183 -12 182 -7 0 -206 -74 -442 -164z"/>
<path d="M4277 4903 c-154 -77 -361 -126 -614 -145 l-153 -12 0 -188 0 -188
38 0 c65 0 254 20 342 36 129 23 290 80 361 128 100 66 100 66 97 248 l-3 156
-68 -35z"/>
<path d="M5265 4356 c-544 -206 -1609 -608 -1637 -618 l-28 -10 0 -1085 c0
-596 4 -1083 9 -1081 4 2 450 170 989 373 l982 370 0 1083 c0 595 -3 1082 -7
1082 -5 -1 -143 -52 -308 -114z"/>
</g>
</svg>
