<?xml version="1.0" standalone="no"?>
<!DOCTYPE svg PUBLIC "-//W3C//DTD SVG 20010904//EN"
 "http://www.w3.org/TR/2001/REC-SVG-20010904/DTD/svg10.dtd">
<svg version="1.0" xmlns="http://www.w3.org/2000/svg"
 width="260.000000pt" height="260.000000pt" viewBox="0 0 260.000000 260.000000"
 preserveAspectRatio="xMidYMid meet">
<metadata>
Created by potrace 1.11, written by Peter Selinger 2001-2013
</metadata>
<g transform="translate(0.000000,260.000000) scale(0.100000,-0.100000)"
fill="#000000" stroke="none">
<path d="M746 2549 c-77 -86 -126 -213 -126 -329 0 -271 231 -501 503 -500 48
0 139 18 180 35 11 5 17 3 17 -6 1 -32 72 -184 125 -266 103 -158 284 -314
449 -387 204 -90 444 -118 649 -75 l57 12 0 783 0 784 -904 0 -904 0 -46 -51z"/>
<path d="M730 1245 c-76 -22 -129 -55 -188 -120 -71 -77 -96 -145 -96 -260 0
-126 25 -188 113 -276 87 -87 149 -112 276 -113 126 0 188 25 276 113 88 88
113 150 113 276 0 126 -25 188 -113 276 -49 49 -81 72 -126 89 -77 29 -182 35
-255 15z"/>
<path d="M1421 1033 c-96 -50 -106 -182 -20 -246 38 -28 106 -32 148 -10 96
50 106 182 20 246 -38 28 -106 32 -148 10z"/>
</g>
</svg>
