<svg xmlns="http://www.w3.org/2000/svg" viewBox="0 0 500 150">
	<defs>
		<filter id="shadow" y="-40%" width="120%" height="180%">
			<feDropShadow dx="0" dy="-16" stdDeviation="8" flood-color="rgb(17, 17, 17)" flood-opacity="0.2" />
		</filter>
	</defs>
	<path style="fill:#f0f0f0; filter:url(#shadow);" d="M37.06 29.4h33.36a45 45 0 010 90H37.06zm23.52 66.72h10a21.3 21.3 0 100-42.6h-10zM164 29.4a45 45 0 11-44.88 45.12A45.12 45.12 0 01164 29.4zm0 23.52a21.48 21.48 0 1021.5 21.48A21.43 21.43 0 00164 52.92zM279.58 119.4L237.1 76.8v42.6h-23.64v-90h9.6l42.6 42.48V29.4h23.64v90zM361.54 119.4l-42.48-42.6v42.6h-23.64v-90H305l42.6 42.48V29.4h23.64v90zM377.26 29.4h23.64v90h-23.64zM407 29.4h55.92V49h-32.26v14.6h28.55v19.92h-28.55v16.56h32.28v19.32H407z" />
	<g fill="#000">
		<path d="M131.77 140.76a6.14 6.14 0 01-3.13-1.66 7.33 7.33 0 01-1.62-2.74 15.65 15.65 0 01-.7-3.48c-.12-1.26-.25-2.58-.39-3.94a5.38 5.38 0 01.74-1.54 2.69 2.69 0 00.39-1.76c.51-1.5 1-3 1.41-4.36a22.56 22.56 0 00.84-4.36 2.38 2.38 0 01.84-.84 34.23 34.23 0 00.14-8.23 48.11 48.11 0 00-1.4-7.81 4.39 4.39 0 01.21-1.16.84.84 0 000-.66c-.1-.43 0-.64.42-.64h1.12a7.2 7.2 0 00-.45-2.49 28.06 28.06 0 01-.88-2.85 10.7 10.7 0 00.77-2.46 6.59 6.59 0 01.78-2.18c1.5.47 3 1 4.43 1.62l4.28 1.78c1.41.59 2.79 1.15 4.15 1.69a32.15 32.15 0 004 1.3q3 2.18 6.22 4.32a41.18 41.18 0 015.84 4.71 23.71 23.71 0 014.39 5.87 19.09 19.09 0 012 7.81c-.09.28-.16.52-.21.7s-.09.38-.14.56a2.51 2.51 0 00-.07.64v1a25.21 25.21 0 01-6.4 7.45 51.77 51.77 0 01-8.43 5.35q-4.58 2.33-9.53 4.25t-9.62 4.11zm6.89-39.87a1.22 1.22 0 00-.91.28 54.92 54.92 0 011.26 6 42.58 42.58 0 01.46 5.62 43.76 43.76 0 01-.32 5.77q-.35 3-1 6.4a5.51 5.51 0 001.62-.36q.69-.27 1.44-.63a16.5 16.5 0 011.54-.63 6.76 6.76 0 011.87-.35 2.15 2.15 0 01.74-.88 5.35 5.35 0 00.8-.67c1.17-.47 2.35-1 3.52-1.48a21.09 21.09 0 003.23-1.75 15.75 15.75 0 002.68-2.25 10.69 10.69 0 002-3 6.5 6.5 0 00-1.37-1.79c-.54-.49-1.1-1-1.68-1.48s-1.15-1-1.69-1.54a6.28 6.28 0 01-1.3-1.87 5.36 5.36 0 01-2-.6c-.56-.3-1.1-.6-1.62-.91s-1.07-.6-1.65-.88a5.63 5.63 0 00-2.07-.49 15.36 15.36 0 00-3.31-1.37 5.37 5.37 0 01-2.24-1.14zM182.69 97.3c-.05.24-.15.37-.32.39s-.29.15-.38.39c-.19.51-.31.83-.35 1a.47.47 0 01-.15.21.65.65 0 00-.17.17 5.84 5.84 0 00-.39.85 15.24 15.24 0 01-1.23 2 5.43 5.43 0 00-.95 2c-.65.57-1.46 1.28-2.42 2.15a9.14 9.14 0 01-2.71 1.79l-2-.88a17.17 17.17 0 01-2.61-1.4 6.9 6.9 0 01-1.86-1.69 1.24 1.24 0 01.14-1.72 13.65 13.65 0 002.22-3.2 31.13 31.13 0 001.68-4 41.92 41.92 0 001.27-4.43c.35-1.52.67-3 .95-4.4a.56.56 0 00.6.18 1.51 1.51 0 00.56-.35 4 4 0 00.49-.6l.39-.56a7.28 7.28 0 001.44.84c.68.33 1.39.65 2.14 1s1.46.58 2.11.81a8.29 8.29 0 001.41.42 5.24 5.24 0 01.91 2.43 13.79 13.79 0 00.36 2.28 1.63 1.63 0 00-.5 1.16 9.3 9.3 0 01-.14 1.16c0 .38-.13.6-.24.67a1 1 0 00-.32.6.5.5 0 000 .42.53.53 0 01.07.31zM169 133.3l.92-.7.07-1.48q1.76-4.29 3.62-8.22c1.24-2.63 2.54-5.32 3.9-8.09.42-.89.86-1.78 1.3-2.67s.88-1.81 1.3-2.74a2.9 2.9 0 01-.07-.6 2.5 2.5 0 01.14-.74 24.88 24.88 0 001.59-2.53c.39-.75.78-1.52 1.16-2.32s.87-1.88 1.37-2.81a15.49 15.49 0 011.86-2.75l.49-.7.78.07a4.54 4.54 0 01.59-.24 2.59 2.59 0 01.81-.11l1.27.21a12.25 12.25 0 004.11-3.06 39.07 39.07 0 003.61-4.82l.85-1.2 1.12.7a5.06 5.06 0 001.13.43c.51.14 1.05.3 1.61.49 1 .23 1.95.5 2.89.81a5.25 5.25 0 012.17 1.23l.36.63c.09.52.17 1 .24 1.41s.15.84.25 1.26c.19 1 .35 2 .49 2.92a31.81 31.81 0 01.28 3.2c.24.94.46 1.89.67 2.85s.41 1.91.6 2.84c.23 1.36.49 2.67.77 3.91a21.62 21.62 0 001.13 3.55 2.65 2.65 0 01.84.07 5.78 5.78 0 012-.42l.91-.07.28.84a2.69 2.69 0 00.36.42 4.26 4.26 0 00.49.42 3.15 3.15 0 011.65.46 7.92 7.92 0 01.88.74 4 4 0 00.35.31 2.17 2.17 0 00.35.25l1.27.49-.71 1.34a10.42 10.42 0 01-2.35 2.88 14.59 14.59 0 01-3.55 2.32 4.74 4.74 0 01.17.92 7.71 7.71 0 00.18 1c.19.94.34 1.91.46 2.92a13.16 13.16 0 010 3.13 17.23 17.23 0 01-1.65 3.27 13.22 13.22 0 01-2.25 2.6 11.93 11.93 0 01-2.92 1.9 9 9 0 01-3.37.81 4.87 4.87 0 01-1.44-.5 6 6 0 01-.81-.56 4.24 4.24 0 00-.92-.56l-.91-.42.28-1.06a1.08 1.08 0 000-1 5.35 5.35 0 00-1-1.13 3.54 3.54 0 01-.49-.45c-.14-.17-.3-.34-.49-.53l-1.41-1.62 2.32-.63a5.47 5.47 0 002.82-1.44 4.77 4.77 0 00.56-3.13 7.2 7.2 0 00-2.88-.11c-.75.17-1.5.34-2.25.53-1.08.28-2.14.53-3.17.74a16.87 16.87 0 01-3.37.31 16.28 16.28 0 01-2.53-.21l-.78-.07-.3-.79a.53.53 0 00-.17-.32l-.32-.31a13.3 13.3 0 01-.84-1.13 2 2 0 01-.21-1.76 3.52 3.52 0 01-.57-1.61 6.62 6.62 0 00-.45 1.09c-.12.35-.23.69-.32 1l-.28.91-.92.14a1.37 1.37 0 00-.24.42.59.59 0 000 .42l.28.78-.7.63a1.17 1.17 0 01-.35.35 2.85 2.85 0 00-.35.28 11 11 0 01-.39 1.48c-.16.47-.34.94-.53 1.41-.23.75-.45 1.47-.66 2.18a7 7 0 00-.32 2.11l-.28.91a2.27 2.27 0 01-.88.84c-.35.19-.69.35-1 .5a2.74 2.74 0 00-1 .56l-.22.91-1 .14c-.61.14-1 .24-1.3.28a4.69 4.69 0 01-.88.07l-.91-.07c-.57-.56-1-1-1.38-1.3a6.24 6.24 0 00-1.23-.81l-.42-.56a3.44 3.44 0 01-.35-1 7.45 7.45 0 00-.21-.95 2.68 2.68 0 00-.42-1.26zm22.42-18.3c-.65.94-1.29 1.92-1.9 3a8 8 0 01.95-.07 6.26 6.26 0 00.95-.07c1.64-.09 3.17-.21 4.57-.35s2.93-.37 4.57-.7q-.56-2.59-1.23-5.31t-1.44-5.5l-.35.7a48.72 48.72 0 00-3.37 4.08 35.41 35.41 0 00-2.68 4.15z" />
		<path d="M264.63 138.72l-1.3.63a3.13 3.13 0 01-1.37.28q-2.74-2-2.85-7.1a45.11 45.11 0 012.15-12.87.91.91 0 00.35-.84l-.63-.7a1.79 1.79 0 00-.53.07c-.17 0-.29.21-.39.49-1.22.89-2.55 1.82-4 2.78a50.8 50.8 0 01-4.53 2.67 29.74 29.74 0 01-4.78 2 15.46 15.46 0 01-4.75.77q-5.91 0-8.86-6l-.56-1.06-.56.92a8.26 8.26 0 00-.64 1.16c-.28.58-.56 1.25-.84 2s-.53 1.51-.74 2.29a5.8 5.8 0 00-.24 2 18.67 18.67 0 00-1.34 1.48 5.61 5.61 0 00-1.05 1.9 1.33 1.33 0 00.14 1 1.6 1.6 0 01-.64 1 6.28 6.28 0 01-.59.67 3.25 3.25 0 00-.53.67 2.68 2.68 0 00-.18.7c0 .24-.06.47-.1.71a3 3 0 01-.14.91 14.45 14.45 0 01-1.9 3.2 2.51 2.51 0 01-1.9.74 12.73 12.73 0 01-1.83-.21 9.39 9.39 0 01-1.65-2.71 18.65 18.65 0 01-1.13-3.69 19.61 19.61 0 01-.35-4 9.33 9.33 0 01.67-3.48s.19-.52.56-1.41.86-2 1.44-3.45 1.26-3 2-4.67 1.5-3.38 2.25-5 1.46-3.11 2.14-4.47a29.44 29.44 0 011.73-3.09l1-1.58.87-1.45a30.51 30.51 0 012.43-3.62 7.7 7.7 0 013.41-2.28 5.7 5.7 0 012.25 1.47l.14.78c.19.47.47.7.84.7s.95.27 1.31.39a9.67 9.67 0 001.16.31 7.83 7.83 0 01.91 1.34c.37.56.74 1.11 1.09 1.65a9 9 0 01.84 1.62 5 5 0 01.35 1.65 4.34 4.34 0 01-.31 1.76l.07.7a2.66 2.66 0 01.14 1.76 6.81 6.81 0 00-.07 1 5 5 0 00.14 1.16 3.8 3.8 0 002.25 1 4.19 4.19 0 002.07-.52c.64-.35 1.23-.72 1.8-1.09a9.41 9.41 0 011.12-.74 3.17 3.17 0 011.13-.39c.84-.79 1.6-1.5 2.28-2.11s1.4-1.22 2.15-1.83a49.47 49.47 0 004.07-3.65 14.5 14.5 0 003.17-4.92 2.85 2.85 0 011.48-.43 4.1 4.1 0 011.61.36c.57.23 1.1.47 1.62.7a2.54 2.54 0 00.39.21l.31.14a1.53 1.53 0 00.57 1.2c.18.14.3.23.35.28a.63.63 0 00.21.14 3 3 0 011.33 1.12 4.38 4.38 0 001.76 2.46 2.74 2.74 0 000 1.31 11 11 0 00.45 1.23c0 .14.1.28.14.42a3.8 3.8 0 00.22.49l-1.34-.14.21 1.33a5.39 5.39 0 01-.18 2.18 7.32 7.32 0 01-.73 1.9c0 1.22.08 2.17.1 2.85a10.54 10.54 0 01-.1 1.9 12.48 12.48 0 01-.39 1.65 15.92 15.92 0 01-.67 1.69 20.48 20.48 0 01-1 8.19q-1.31 3.69-2.7 6.93c-.1.23-.21.46-.32.7s-.22.47-.32.7a8.64 8.64 0 00-1.12.46z" />
		<path d="M306.41 134.08a11.28 11.28 0 01-1.23 2.42 10.53 10.53 0 01-4.32 3.76 7.25 7.25 0 01-2.86.74 3.67 3.67 0 01-1.23-.46 6 6 0 00-.66-.46l-.39-.24-.32-.18-.84-.35.28-.91a1.1 1.1 0 00-.07-.88 5.18 5.18 0 00-.84-.88l-.43-.42a4.14 4.14 0 01-.35-.43l-1.15-1.36 1.9-.49a4.44 4.44 0 002.35-1.27 3.85 3.85 0 00.46-2.6 5.79 5.79 0 00-2.36-.07c-.63.14-1.27.3-1.93.49-.84.24-1.7.43-2.57.6a15.59 15.59 0 01-2.84.24h-1.06c-.33 0-.68-.06-1.05-.11l-.71-.14c-.09-.51-.18-.81-.28-.88a3 3 0 01-.28-.24 6.44 6.44 0 01-.74-1 1.9 1.9 0 01-.17-1.51 3.42 3.42 0 01-.43-1.27 7.86 7.86 0 00-.63 1.76l-.28.7-.7.14a.46.46 0 00-.21.32 1.34 1.34 0 00-.07.39l-.4 1.21a1.62 1.62 0 01-.28.25l-.28.24a11.38 11.38 0 01-.35 1.27c-.14.42-.28.82-.42 1.19-.24.61-.43 1.21-.6 1.8a4.85 4.85 0 00-.17 1.72l-.29.77a2.84 2.84 0 01-.77.67c-.28.17-.56.32-.84.46a1.44 1.44 0 01-.39.24l-.39.18-.21.77-.84.14-1.09.22a4 4 0 01-.74.07l-.7-.07-1.2-1a6.44 6.44 0 00-1-.74 3.73 3.73 0 01-.71-1.27c0-.28-.09-.54-.14-.77a3.85 3.85 0 01-.17-.7.74.74 0 00-.18-.43l-.91-.84.77-.63.07-1.2q1.41-3.59 3-6.89c1.06-2.2 2.14-4.45 3.27-6.75.37-.75.74-1.5 1.09-2.25s.71-1.5 1.09-2.25a1.45 1.45 0 01-.07-.49 1.76 1.76 0 01.14-.63c.52-.8.94-1.52 1.27-2.15l1-1.93c.37-.8.76-1.57 1.16-2.32a16.57 16.57 0 011.51-2.32l1.13-.5.49-.17a1.81 1.81 0 01.63-.11l1.06.14a10.36 10.36 0 003.44-2.56 36.52 36.52 0 003-4l.7-1 .91.56a4.23 4.23 0 001 .39l1.33.39c.85.18 1.64.4 2.39.63a4.43 4.43 0 011.83 1.05 8 8 0 01.49 1.69 11.2 11.2 0 00.21 1.13c.15.79.27 1.59.39 2.39s.2 1.68.25 2.67c.23.8.43 1.58.6 2.35s.31 1.56.45 2.36c.24 1.13.47 2.22.71 3.27a18.58 18.58 0 00.91 3 2 2 0 01.7.07 3.13 3.13 0 01.74-.21c.26 0 .55-.1.88-.14l.77-.07.28.7c0 .23.29.47.71.7a2.59 2.59 0 011.33.39 7.23 7.23 0 01.78.67 2.1 2.1 0 00.56.42l1 .42-.56 1.06a9.56 9.56 0 01-2 2.42 12.37 12.37 0 01-2.92 1.94c.05.28.08.55.11.8a3.55 3.55 0 00.17.81c.14.8.26 1.62.35 2.46a11.3 11.3 0 010 2.6zm-20.32-12.17c1.41-.09 2.68-.2 3.83-.31s2.43-.32 3.84-.6c-.33-1.41-.68-2.87-1.06-4.4s-.77-3-1.19-4.53l-.43.7a30.49 30.49 0 00-2.7 3.31 39.14 39.14 0 00-2.22 3.44l-.84 1.27q-.42.63-.78 1.26a6 6 0 01.81-.07 3.51 3.51 0 00.74-.07z" />
		<path d="M342.07 106.16a30.59 30.59 0 00-3.79.25c-1.36.16-2.7.34-4 .53-.94.14-1.84.25-2.71.35s-1.65.16-2.35.21c-.33 1-.66 1.94-1 2.74s-.68 1.57-1.05 2.32-.72 1.61-1 2.43-.6 1.7-.88 2.63a19.88 19.88 0 00-1.16 2.08 10.13 10.13 0 00-.74 2.14 7.72 7.72 0 00-1.26 2.22 18.51 18.51 0 00-.64 2l-.28.84a2 2 0 00-.49.67.93.93 0 01-.35.46 4.05 4.05 0 01-.49 1.55 3.93 3.93 0 00-.22.66 3.44 3.44 0 00-.07.46c0 .47-.11.77-.35.92a1.79 1.79 0 010 .73c0 .26-.09.51-.14.74a3.63 3.63 0 00-.14 1.34c.14.19.27.35.39.49a1.15 1.15 0 01.24.56 2.86 2.86 0 00.64.35 5.76 5.76 0 00.84.5l.63.7a3.8 3.8 0 01-.63 3.23 4.32 4.32 0 01-3.59 1.34h-.84a1.88 1.88 0 01-.42-.56l-.92-.35a1.52 1.52 0 01-.63-.57c-.61-.28-1.1-.51-1.47-.7l-.64-.35v-.85a4.59 4.59 0 01-.74-1.4 12.5 12.5 0 01-.38-1.55c-.1-.42-.2-.82-.32-1.19a3.77 3.77 0 00-.46-1 20.3 20.3 0 01.78-6.89c.61-1.87 1.24-3.68 1.9-5.41.37-.94.75-1.89 1.12-2.85a30.79 30.79 0 001-3l.63-.7c.33-.75.6-1.37.81-1.87l.66-1.51c.15-.32.27-.64.39-1s.22-.57.32-.8h-.78a6 6 0 00-.7.11l-.77.1a5.63 5.63 0 01-.71 0 2.77 2.77 0 01-.7-.07 4.09 4.09 0 01-1.69.35h-.7a1.61 1.61 0 01-.39 0h-.31a2.56 2.56 0 00-1.13.21h-2.74a1.7 1.7 0 01-.35 0 5.88 5.88 0 01-1.06-.11 4.1 4.1 0 01-1.19-.45c-.56-.75-.94-1.15-1.13-1.2l-.63-.84a5.34 5.34 0 00-.21-.81c-.09-.26-.19-.55-.28-.88s-.36-1-.53-1.51a6.9 6.9 0 01-.24-1.94 1.73 1.73 0 01.28-.84c.14-.19.26-.35.35-.49l.21-1.06.91.07h2c1.5 0 3 0 4.57-.17l4.78-.39L318 99l3-.28c.19-.42.38-.82.56-1.2l.71-.35a2.87 2.87 0 011.79.32 7.92 7.92 0 01.88.74c1-.1 2.07-.2 3.13-.32s2.12-.27 3.2-.46c1.59-.23 3.2-.44 4.81-.63a40.17 40.17 0 014.68-.28c.65 0 1.29 0 1.9.07s1.17.12 1.68.21l.71.49a2.87 2.87 0 00.59.78c.26.23.53.47.81.7a15.18 15.18 0 011.69 1.83 4.15 4.15 0 01.63 3.09 3.28 3.28 0 01-.84 1l-.63.84-.71-.07a2.66 2.66 0 00-.77.1c-.23.07-.47.16-.7.25a4.7 4.7 0 01-.57.25 3.18 3.18 0 01-.63.17h-1a7 7 0 00-.85-.09z" />
		<path d="M370 118.89a4.61 4.61 0 00.14 1.62 11.76 11.76 0 00.53 1.51c.21.49.41 1 .6 1.51a9.91 9.91 0 01.42 1.55 8.5 8.5 0 010 2.14 12.19 12.19 0 01-.49 2.25 8.5 8.5 0 01-.92 2 3.66 3.66 0 01-1.33 1.3 7.08 7.08 0 01-2.39 2 13.34 13.34 0 00-2.6 1.69 5.52 5.52 0 01-1.73.7l-1.93.42c-.52.28-1.13.58-1.83.88s-1.43.59-2.18.84a13.26 13.26 0 01-2.25.57 8.59 8.59 0 01-2 .1 17.9 17.9 0 01-4.11 1 14.4 14.4 0 01-4.68-.31 11.83 11.83 0 01-4.67-.22 10.84 10.84 0 01-3.8-1.79 13.23 13.23 0 01-2.88-3 18.16 18.16 0 01-2-3.62 18.6 18.6 0 01.29-7.28 24.77 24.77 0 012.42-6.05 32.4 32.4 0 013.62-5.13c1.36-1.57 2.67-3.1 3.94-4.61a.7.7 0 00.67 0 2.19 2.19 0 00.46-.49 6.7 6.7 0 01.45-.6 1 1 0 01.6-.35 3.37 3.37 0 011.44-1.58 3.94 3.94 0 001.51-1.52 3 3 0 001.06-.42 6.79 6.79 0 00.81-.63c.25-.23.52-.46.8-.67a2.91 2.91 0 011-.46v-.77a4.92 4.92 0 001.86-1.3l1.44-1.79a9 9 0 011-.07 7.46 7.46 0 001.16-.14 8.74 8.74 0 011-1.48 6.53 6.53 0 011.37-1 6.26 6.26 0 001.87.56 3.09 3.09 0 011.79.91 1.9 1.9 0 00.42 1.09 5.2 5.2 0 00.78.7c.28.22.55.44.8.67a1.83 1.83 0 01.53 1c.19 0 .32 0 .39-.07s.2-.12.39-.07a3.08 3.08 0 00.49 1.3 3.76 3.76 0 01.56 1.23 6.59 6.59 0 00-.53 1.44 1.6 1.6 0 01-.88 1.09c0 .33.05.5.28.53a.44.44 0 01.43.38 1.15 1.15 0 01-.21.92 47.41 47.41 0 013 5.8 47.41 47.41 0 003.09 5.72zm-8.79 6.68a3.8 3.8 0 01.74-1.27 2.33 2.33 0 00.53-1.47 2.88 2.88 0 01-.42-.88 5 5 0 01-.07-1 26.25 26.25 0 01-2.67-4.68 36.49 36.49 0 00-2.54-4.67 1.74 1.74 0 01-.49.56c-.23.19-.49.14-.77-.14a1.42 1.42 0 01-.49.81 1.22 1.22 0 01-.78.21 3.86 3.86 0 01-.88-.21 3 3 0 01-.8-.46c-1.37 1.08-2.72 2.13-4.08 3.16a20.38 20.38 0 00-3.66 3.59c-.19.09-.3.13-.35.11s-.19 0-.42.1a12.43 12.43 0 01-1.37 2.43 73.2 73.2 0 00-1.59 2.21 15 15 0 00-1.33 2.39 7.85 7.85 0 00-.63 2.95 5.37 5.37 0 002.81 1.2 15.45 15.45 0 003.34.07 30.71 30.71 0 003.37-.46 16.36 16.36 0 013.06-.31 19.88 19.88 0 005.06-1.87q2.12-1.17 4.43-2.37z" />
	</g>
</svg>
